<svg xmlns="http://www.w3.org/2000/svg" xmlns:xlink="http://www.w3.org/1999/xlink" width="100" height="100" viewBox="0 0 100 100">
  <defs>
    <clipPath id="clip-path">
      <rect id="Rectangle_5" data-name="Rectangle 5" width="87" height="86" transform="translate(0.346 0.05)" fill="#fff"/>
    </clipPath>
  </defs>
  <g id="Group_4" data-name="Group 4" transform="translate(-255 -39)">
    <rect id="Rectangle_4" data-name="Rectangle 4" width="100" height="100" transform="translate(255 39)" fill="#822f2f" opacity="0"/>
    <g id="assistance" transform="translate(261.654 45.95)" clip-path="url(#clip-path)">
      <path id="Path_6" data-name="Path 6" d="M28.144,30.535a3.853,3.853,0,0,0-2,.524,1.6,1.6,0,0,0-.571.667,2.347,2.347,0,0,0-.186,1.069,9.525,9.525,0,0,0,1.884,4.62l.014.029,3.968,6.32a33.944,33.944,0,0,0,5.323,7.03,10.877,10.877,0,0,0,7.593,3.077,11.163,11.163,0,0,0,8.035-3.207,35.447,35.447,0,0,0,5.48-7.511l4.46-7.389c.835-1.908,1.135-3.185.942-3.931-.114-.445-.6-.667-1.434-.7-.178-.007-.357-.014-.542-.007s-.407.022-.621.036a1.076,1.076,0,0,1-.342-.022,6.391,6.391,0,0,1-1.22-.065l1.527-6.8c-11.339,1.794-19.817-6.672-31.8-1.693l.863,8.013A7.665,7.665,0,0,1,28.144,30.535Zm7.179,34.413c-2.184-2.5-2.369-5.115,0-7.884a22.937,22.937,0,0,1,7.414,3.4,3.837,3.837,0,0,1,1.741-.136c2.4-1.743,5.5-2.432,8.2-3.73,3.2,3.128,2.854,6.011-.293,8.695a22.014,22.014,0,0,1-5.409-2.045,4.82,4.82,0,0,1-.364,1.557l3.5,12.2c2.7-5.71,5.516-11.385,6.158-17.87-1.07-1.263-2.205-2.934-3.19-4.383-.293-.43-.564-.832-.828-1.212a13.055,13.055,0,0,1-8.085,2.575,12.846,12.846,0,0,1-8.606-3.228c-.014.022-.029.05-.043.072-.371.517-.785,1.126-1.234,1.786-.842,1.241-1.784,2.633-2.712,3.8,1.2,7.518,4.068,12.805,6.665,18.451l3.5-12.2a4.4,4.4,0,0,1-.685-1.994A20.44,20.44,0,0,1,35.323,64.947ZM53.634,52.393c.278.4.592.861.92,1.341.614.9,1.292,1.9,1.962,2.812,4.638,4.024,17.9,4.857,22.864,7.64a13.153,13.153,0,0,1,4.16,3.537,17.053,17.053,0,0,1,3.1,9.175l1.042,4.685c-.257,2.712-1.784,4.275-4.8,4.512H4.8C1.791,85.866.257,84.3,0,81.583L1.042,76.9a17.074,17.074,0,0,1,3.1-9.175,12.986,12.986,0,0,1,4.16-3.537c4.71-2.64,16.905-3.522,22.1-7.052.813-1.054,1.648-2.3,2.4-3.4.464-.689.9-1.327,1.263-1.829a.9.9,0,0,1,.221-.215,39.894,39.894,0,0,1-4.931-6.729L25.4,38.627a11.639,11.639,0,0,1-2.248-5.782,4.639,4.639,0,0,1,.385-2.073A3.841,3.841,0,0,1,24.9,29.179a4.689,4.689,0,0,1,.963-.5A101.979,101.979,0,0,1,25.682,17.3a15.435,15.435,0,0,1,.485-2.575,15.224,15.224,0,0,1,6.694-8.573,18.087,18.087,0,0,1,3.6-1.765c2.276-.832,1.17-4.333,3.7-4.39C46.077-.14,55.767,4.889,59.55,9a15.471,15.471,0,0,1,3.875,9.756l-.25,10.33a2.879,2.879,0,0,1,2.091,2.167c.321,1.255-.029,3.027-1.085,5.438l-.064.129L59.6,44.294a36.883,36.883,0,0,1-5.866,7.984Z" transform="translate(0.003 0)" fill="#fff" fill-rule="evenodd"/>
    </g>
  </g>
</svg>
