<svg xmlns="http://www.w3.org/2000/svg" width="14.079" height="14.192" viewBox="0 0 14.079 14.192">
  <g id="breadcumb" transform="translate(-0.055 0.008)">
    <path id="Path_1" data-name="Path 1" d="M14.681,6.455,8.567.253a.88.88,0,0,0-1.253,0,.9.9,0,0,0,0,1.265L12.8,7.087l-5.49,5.569a.9.9,0,0,0,0,1.265.88.88,0,0,0,1.253,0l6.113-6.2A.924.924,0,0,0,14.681,6.455Z" transform="translate(-0.798)" fill="#fff"/>
    <path id="Path_2" data-name="Path 2" d="M7.681,6.455,1.568.253a.88.88,0,0,0-1.253,0,.9.9,0,0,0,0,1.265L5.8,7.087.315,12.656a.9.9,0,0,0,0,1.265.88.88,0,0,0,1.253,0L7.68,7.72A.924.924,0,0,0,7.681,6.455Z" fill="#fff"/>
  </g>
</svg>
