<svg width="124" height="124" viewBox="0 0 124 124" fill="none" xmlns="http://www.w3.org/2000/svg">
<rect width="124" height="124" rx="20" fill="#0E99FF"/>
<g clip-path="url(#clip0_13977_2)">
<path fill-rule="evenodd" clip-rule="evenodd" d="M98.6515 89.9806C96.3365 97.0156 87.2665 100.524 80.7865 99.9391C71.9365 99.1391 62.3065 94.445 54.9965 89.275C44.2515 81.675 34.1865 69.919 28.3215 57.444C24.1765 48.629 23.2465 37.791 29.4115 29.756C31.6915 26.786 34.1565 25.1998 37.8615 25.0148C43.0015 24.7648 43.7215 27.7053 45.4865 32.2853C46.8015 35.7103 48.5565 39.204 49.5365 42.754C51.3715 49.379 44.9565 49.6559 44.1465 55.0709C43.6415 58.4859 47.7815 63.0656 49.6515 65.5006C53.3165 70.2706 57.7215 74.3848 62.6915 77.5148C65.5365 79.3098 70.1315 82.5444 73.3915 80.7594C78.4115 78.0094 77.9365 69.5448 84.9565 72.4098C88.5915 73.8898 92.1115 76.0256 95.5815 77.8956C100.946 80.7806 100.696 83.7706 98.6515 89.9806C100.181 85.3406 97.1215 94.6206 98.6515 89.9806Z" fill="white"/>
</g>
<defs>
<clipPath id="clip0_13977_2">
<rect width="75" height="75" fill="white" transform="translate(25 25)"/>
</clipPath>
</defs>
</svg>
