<svg width="34" height="34" viewBox="0 0 34 34" fill="none" xmlns="http://www.w3.org/2000/svg">
<circle cx="17" cy="17" r="17" fill="#0E99FF"/>
<path d="M17 7.00288C16.0794 6.97539 15.1631 7.1451 14.3066 7.50173C13.45 7.85836 12.6711 8.3945 12.0168 9.07769C11.3625 9.76089 10.8465 10.5769 10.5 11.4764C10.1536 12.3759 9.98389 13.3402 10.0012 14.3108C10.0012 20.4306 16.4843 26.0921 16.7569 26.3251C16.8236 26.3853 16.9085 26.4183 16.9963 26.4183C17.0841 26.4183 17.169 26.3853 17.2357 26.3251C17.5231 26.0533 23.9988 19.8248 23.9988 14.3108C24.0161 13.3402 23.8464 12.3759 23.5 11.4764C23.1535 10.5769 22.6375 9.76089 21.9832 9.07769C21.3289 8.3945 20.55 7.85836 19.6934 7.50173C18.8369 7.1451 17.9206 6.97539 17 7.00288ZM17 17.8755C16.3443 17.8755 15.7033 17.6705 15.1582 17.2865C14.613 16.9025 14.1881 16.3567 13.9371 15.7181C13.6862 15.0795 13.6206 14.3769 13.7485 13.6989C13.8764 13.021 14.1921 12.3983 14.6558 11.9096C15.1194 11.4208 15.7101 11.088 16.3532 10.9531C16.9963 10.8183 17.6629 10.8875 18.2687 11.152C18.8745 11.4165 19.3922 11.8644 19.7565 12.4391C20.1208 13.0139 20.3152 13.6895 20.3152 14.3807C20.3152 15.3076 19.9659 16.1965 19.3442 16.8519C18.7225 17.5073 17.8793 17.8755 17 17.8755Z" fill="white"/>
</svg>
