<svg width="34" height="34" viewBox="0 0 34 34" fill="none" xmlns="http://www.w3.org/2000/svg">
<circle cx="17" cy="17" r="17" fill="#0E99FF"/>
<g clip-path="url(#clip0_10066_955)">
<path fill-rule="evenodd" clip-rule="evenodd" d="M21.1749 15.607V14.1356C21.2407 13.8687 21.364 13.7303 21.5037 13.7059C21.9887 13.6197 21.9114 15.5044 21.1749 15.607ZM12.2481 24.0233C12.5653 24.0233 12.8235 24.2788 12.8235 24.593C12.8235 24.9071 12.5653 25.1626 12.2481 25.1626C11.9308 25.1626 11.6727 24.9071 11.6727 24.593C11.6727 24.2772 11.9308 24.0233 12.2481 24.0233ZM14.548 13.4097C14.4855 13.4325 14.4181 13.3967 14.3967 13.3299C14.3754 13.2632 14.4083 13.19 14.4707 13.1672C14.7108 13.0777 14.9508 13.037 15.1924 13.0386C15.4325 13.0402 15.6708 13.0842 15.9092 13.1656C15.9717 13.1867 16.0062 13.2583 15.9865 13.3251C15.9668 13.3918 15.901 13.4292 15.8385 13.4081C15.7596 13.3804 15.6807 13.3576 15.6018 13.3413C15.61 13.369 15.6133 13.3967 15.6133 13.426C15.6133 13.6001 15.4637 13.7417 15.2812 13.7417C15.0971 13.7417 14.9491 13.6001 14.9491 13.426C14.9491 13.3837 14.959 13.343 14.9738 13.3055C14.8308 13.3234 14.6894 13.356 14.548 13.4097ZM18.4114 13.3153C18.3966 13.3495 18.3867 13.3202 18.3867 13.4276C18.3867 13.535 18.5363 13.7434 18.7188 13.7434C18.9029 13.7434 19.0509 13.6018 19.0509 13.4276C19.0509 13.3771 19.0394 13.3299 19.0163 13.2876C19.161 13.3023 19.309 13.3332 19.4553 13.3788C19.5178 13.3983 19.5835 13.3592 19.6016 13.2909C19.6197 13.2225 19.5835 13.1525 19.5194 13.133C19.2794 13.0581 19.0394 13.0223 18.801 13.0223C18.5626 13.0223 18.3259 13.0598 18.0908 13.1346C18.0283 13.1542 17.9921 13.2258 18.0102 13.2925C18.0283 13.3609 18.0941 13.3999 18.1565 13.3788C18.2437 13.3527 18.3292 13.3316 18.4114 13.3153ZM16.9992 26.1848L14.3211 18.3885L15.1316 19.1405C15.1365 19.1454 15.1431 19.1503 15.1497 19.1551C15.2681 19.2479 15.393 19.3212 15.5212 19.3781C15.6478 19.4335 15.781 19.4758 15.9174 19.5067C16.1558 19.5588 16.6786 19.593 17.1767 19.593C17.6206 19.593 18.053 19.5669 18.265 19.5018C18.4064 19.4579 18.5429 19.3976 18.6744 19.3179C18.8026 19.2398 18.9259 19.1421 19.0443 19.0249L19.6559 18.4618L16.9992 26.1848ZM14.2537 18.3251C13.6175 19.0347 12.807 19.2072 11.9226 19.1535C11.6727 19.16 11.431 19.1796 11.2008 19.2137C10.9477 20.0129 10.8803 20.7469 10.9773 21.4208C11.071 22.0751 11.3225 22.674 11.7055 23.2176C11.8732 23.1525 12.0574 23.1167 12.2481 23.1167C13.0717 23.1167 13.7375 23.7775 13.7375 24.5913C13.7375 25.4068 13.0701 26.0659 12.2481 26.0659C11.4261 26.0659 10.7586 25.4051 10.7586 24.5913C10.7586 24.1568 10.9477 23.7661 11.2502 23.4976C10.8293 22.8921 10.5531 22.2248 10.4479 21.4956C10.3509 20.8267 10.3986 20.1073 10.6074 19.3391C9.32341 19.6955 8.4225 20.5809 8 22.1337V27.0002H26V22.1337C25.5726 20.5598 24.6503 19.6711 23.34 19.3244C23.3762 19.4937 23.3959 19.6727 23.3992 19.8534C23.4025 20.0926 23.3778 20.3384 23.3236 20.5712C23.4074 20.6004 23.4896 20.633 23.5685 20.6672C23.7313 20.7388 23.8809 20.8234 24.0108 20.9243C24.4399 21.2596 24.6207 21.66 24.6717 22.0978C24.7177 22.5047 24.647 22.9263 24.5648 23.3527L24.5632 23.3609C24.5566 23.3999 24.5401 23.4878 24.5253 23.5773C24.4218 24.173 24.3051 24.8387 23.8513 25.2912C23.6902 25.4523 23.5044 25.5646 23.294 25.6265C23.2677 25.6346 23.2414 25.6411 23.2134 25.6476C23.1099 25.8234 22.9175 25.9422 22.6972 25.9422C22.3684 25.9422 22.1005 25.6769 22.1005 25.3514C22.1005 25.0243 22.3684 24.7606 22.6972 24.7606C22.9307 24.7606 23.1329 24.8924 23.2315 25.0861C23.3187 25.0471 23.3992 24.9917 23.4732 24.9185C23.8086 24.5865 23.9089 24.007 23.9993 23.4894C24.0091 23.4325 24.019 23.3771 24.0387 23.2681L24.0404 23.2583C24.1143 22.8726 24.1785 22.4934 24.1407 22.1581C24.1061 21.8553 23.9795 21.5754 23.682 21.3426C23.5866 21.2678 23.4748 21.2059 23.3532 21.1522C23.2266 21.0969 23.0819 21.048 22.9241 21.0025V21.0008C22.9192 20.9992 22.9142 20.9976 22.911 20.996C22.8846 20.9862 22.86 20.9748 22.8386 20.9585C22.8123 20.9618 22.7844 20.9601 22.7564 20.9553C22.5657 20.9178 22.3701 20.9048 22.1909 20.9113C22.015 20.9178 21.8539 20.9455 21.7273 20.9911C21.0352 21.2385 20.8856 21.9269 20.7376 22.5991L20.7343 22.6089C20.7228 22.6594 20.7113 22.7147 20.6899 22.8107C20.6603 22.9377 20.6307 23.05 20.6028 23.1558C20.4992 23.5448 20.4088 23.885 20.5354 24.2935C20.5683 24.3976 20.6028 24.4888 20.6439 24.5669C20.7524 24.4497 20.9086 24.3765 21.0828 24.3765C21.4133 24.3765 21.6796 24.6418 21.6796 24.9673C21.6796 25.2945 21.4116 25.5581 21.0828 25.5581C20.8625 25.5581 20.6718 25.4409 20.5683 25.2652C20.5042 25.2261 20.4433 25.1789 20.3874 25.1203C20.2313 24.9608 20.1129 24.7313 20.0258 24.4481C19.8548 23.8963 19.9633 23.4878 20.0866 23.0207C20.1145 22.9116 20.1458 22.801 20.1688 22.6935C20.177 22.6594 20.1934 22.5796 20.2115 22.495C20.2115 22.4917 20.2132 22.4885 20.2132 22.4852C20.3907 21.6714 20.5716 20.8397 21.5448 20.4914C21.7223 20.4279 21.9394 20.3905 22.1695 20.3807C22.3767 20.3726 22.5953 20.3856 22.8107 20.4247C22.8501 20.2424 22.8699 20.0503 22.8666 19.8615C22.8633 19.6239 22.8238 19.396 22.7515 19.2072C22.5361 19.1779 22.3109 19.16 22.0791 19.1535C21.2078 19.2072 20.4072 19.0379 19.7742 18.3544L19.8351 18.299C19.9173 18.2225 20.006 18.1444 20.0899 18.0695C20.7639 17.4673 21.1979 17.0799 21.1502 15.9455C21.1502 15.9422 21.1502 15.939 21.1502 15.9357V15.8641C21.1716 15.8657 21.1946 15.8657 21.216 15.8625C21.7256 15.7909 22.0002 15.2001 22.0659 14.632C22.084 14.4758 22.0873 14.3212 22.0758 14.1828C22.0643 14.0347 22.0347 13.8963 21.987 13.7857C21.8933 13.5627 21.7371 13.4309 21.5152 13.4471L21.7914 13.2844C21.8243 12.8612 21.9295 12.285 22.0117 11.743C22.0495 11.4907 22.0643 11.2515 22.0577 11.0236C22.2073 9.82083 21.9607 8.9761 21.3837 8.43085C20.2855 7.36314 18.7714 6.97089 16.9975 7.00344C15.4045 6.99205 14.2471 7.44452 13.4268 8.25833C12.5653 8.13463 12.0409 8.56432 11.9045 9.63365V10.5272C11.9373 11.0806 12.1182 11.2792 12.3418 11.2368C12.3483 11.3312 12.3566 11.4273 12.3714 11.5249C12.4634 12.1337 12.6097 12.7945 12.6656 13.3299L12.8728 13.4406V13.6376C12.7807 13.5366 12.6689 13.4781 12.5473 13.4569C12.2941 13.4129 12.1182 13.5464 12.0163 13.7889C11.9702 13.8996 11.9406 14.0379 11.9275 14.1861C11.916 14.3244 11.9193 14.479 11.9373 14.6353C12.0031 15.2017 12.2777 15.7941 12.7873 15.8657C12.8152 15.869 12.8432 15.869 12.8711 15.8657V16.3508C12.8711 16.3687 12.8728 16.385 12.8761 16.4029C13.0651 17.2655 13.292 17.4641 13.7671 17.8856C13.8526 17.9605 13.9447 18.0435 14.04 18.1297L14.2537 18.3251ZM20.8658 12.2525C18.2634 10.4849 16.6622 9.02167 14.4921 10.3238C13.7194 10.7876 13.481 11.7365 13.1292 12.2671C13.1292 13.6278 13.1292 14.9852 13.1292 16.3459C13.3347 17.2785 13.5879 17.3583 14.2176 17.9426L15.3108 18.9582C15.5081 19.1128 15.73 19.204 15.9684 19.256C16.3843 19.3488 17.7801 19.3781 18.1713 19.2593C18.4081 19.1861 18.6333 19.0526 18.8404 18.8475L19.6345 18.1167C20.4022 17.4103 20.9217 17.106 20.8675 15.9374C20.8658 14.7053 20.8658 13.4813 20.8658 12.2525ZM15.5886 12.0213C15.6922 12.0165 15.781 12.0946 15.7859 12.1922C15.7908 12.2915 15.7103 12.3745 15.6051 12.3794C15.3157 12.3924 15.0675 12.4478 14.8604 12.5422C14.6581 12.635 14.4937 12.7668 14.3622 12.9328C14.2998 13.0126 14.1814 13.0288 14.0975 12.9702C14.0137 12.9116 13.9956 12.7993 14.0581 12.7196C14.2258 12.5047 14.4362 12.3371 14.6943 12.2183C14.9475 12.1027 15.245 12.036 15.5886 12.0213ZM18.5708 12.3436C18.4673 12.3436 18.3818 12.2622 18.3834 12.1629C18.3834 12.0637 18.4689 11.9839 18.5725 11.9839C18.8848 11.9855 19.1709 12.0409 19.429 12.1548C19.6887 12.2704 19.9156 12.4445 20.108 12.6805C20.1721 12.7587 20.1573 12.871 20.0734 12.9328C19.9912 12.993 19.8712 12.9784 19.8088 12.9003C19.6542 12.7098 19.4734 12.5715 19.2695 12.4803C19.0624 12.3892 18.8289 12.3452 18.5708 12.3436ZM16.5865 15.506C16.5208 15.454 16.5126 15.3612 16.5668 15.2993C16.6211 15.2375 16.7197 15.2294 16.7838 15.2814C16.8611 15.3433 16.9351 15.3758 17.0058 15.3758C17.0764 15.3775 17.1537 15.3465 17.2376 15.2814C17.3033 15.2294 17.4003 15.2391 17.4546 15.301C17.5088 15.3628 17.499 15.4556 17.4332 15.506C17.2902 15.6167 17.1471 15.6688 17.0008 15.6672C16.8578 15.6656 16.7197 15.6102 16.5865 15.506ZM16.1016 17.438C16.0227 17.3973 15.9914 17.3046 16.0342 17.2297C16.0769 17.1548 16.1739 17.1255 16.2545 17.1662C16.5043 17.2915 16.7509 17.3566 16.9926 17.3566C17.2343 17.3566 17.4776 17.2948 17.7192 17.1678C17.7982 17.1271 17.8968 17.1548 17.9395 17.2281C17.9823 17.3029 17.9543 17.3957 17.8754 17.4364C17.5844 17.5894 17.2902 17.6643 16.9926 17.6626C16.695 17.6626 16.3975 17.5878 16.1016 17.438ZM12.8251 15.607V14.1356C12.7593 13.8687 12.636 13.7303 12.4963 13.7059C12.0113 13.6197 12.0886 15.5044 12.8251 15.607ZM16.7361 24.1763L15.6856 19.9543C16.6046 20.1577 17.3263 20.1773 18.3571 19.9543L17.3592 24.1763H16.7361Z" fill="white"/>
</g>
<defs>
<clipPath id="clip0_10066_955">
<path d="M8 7H26V26C26 26.5523 25.5523 27 25 27H9C8.44772 27 8 26.5523 8 26V7Z" fill="white"/>
</clipPath>
</defs>
</svg>
