<svg width="34" height="34" viewBox="0 0 34 34" fill="none" xmlns="http://www.w3.org/2000/svg">
<circle cx="17" cy="17" r="17" fill="#0E99FF"/>
<path d="M21.5 13.7V8H12.5V13.7H8V26H15.8V22.4H14.9V21.8H19.1V22.4H18.2V26H26V13.7H21.5ZM11.3 22.7H9.5V20.9H11.3V22.7ZM11.3 19.7H9.5V17.9H11.3V19.7ZM11.3 16.7H9.5V14.9H11.3V16.7ZM14.9 20.3H13.7V19.1H14.9V20.3ZM14.9 17.9H13.7V16.7H14.9V17.9ZM14.9 15.5H13.7V14.3H14.9V15.5ZM19.1 14.3H20.3V15.5H19.1V14.3ZM19.1 16.7H20.3V17.9H19.1V16.7ZM17.6 20.3H16.4V19.1H17.6V20.3ZM17.6 17.9H16.4V16.7H17.6V17.9ZM17.6 15.5H16.4V14.3H17.6V15.5ZM18.8 11.9H17.6V13.1H16.4V11.9H15.2V10.7H16.4V9.5H17.6V10.7H18.8V11.9ZM19.1 20.3V19.1H20.3V20.3H19.1ZM20.6 24.8H20V24.2H20.6V24.8ZM20.6 23.6H20V23H20.6V23.6ZM20.6 22.4H20V21.8H20.6V22.4ZM24.5 22.7H22.7V20.9H24.5V22.7ZM24.5 19.7H22.7V17.9H24.5V19.7ZM24.5 16.7H22.7V14.9H24.5V16.7Z" fill="white"/>
</svg>
