<svg width="28" height="28" viewBox="0 0 28 28" fill="none" xmlns="http://www.w3.org/2000/svg">
<path d="M8.16536 9.33337H5.83203V11.6667H8.16536V9.33337Z" fill="#0E99FF"/>
<path d="M12.8333 9.33337H10.5V11.6667H12.8333V9.33337Z" fill="#0E99FF"/>
<path d="M17.5013 9.33337H15.168V11.6667H17.5013V9.33337Z" fill="#0E99FF"/>
<path d="M22.1654 9.33337H19.832V11.6667H22.1654V9.33337Z" fill="#0E99FF"/>
<path d="M8.16536 12.8334H5.83203V15.1667H8.16536V12.8334Z" fill="#0E99FF"/>
<path d="M12.8333 12.8334H10.5V15.1667H12.8333V12.8334Z" fill="#0E99FF"/>
<path d="M17.5013 12.8334H15.168V15.1667H17.5013V12.8334Z" fill="#0E99FF"/>
<path d="M22.1654 12.8334H19.832V15.1667H22.1654V12.8334Z" fill="#0E99FF"/>
<path d="M8.16536 16.3334H5.83203V18.6667H8.16536V16.3334Z" fill="#0E99FF"/>
<path d="M12.8333 16.3334H10.5V18.6667H12.8333V16.3334Z" fill="#0E99FF"/>
<path d="M17.5013 16.3334H15.168V18.6667H17.5013V16.3334Z" fill="#0E99FF"/>
<path d="M22.1654 16.3334H19.832V18.6667H22.1654V16.3334Z" fill="#0E99FF"/>
<path d="M8.16536 19.8334H5.83203V22.1667H8.16536V19.8334Z" fill="#0E99FF"/>
<path d="M12.8333 19.8334H10.5V22.1667H12.8333V19.8334Z" fill="#0E99FF"/>
<path d="M17.5013 19.8334H15.168V22.1667H17.5013V19.8334Z" fill="#0E99FF"/>
<path d="M23.3346 1.16663H18.668V4.66663H16.3346V3.93163C16.3346 3.50772 16.1662 3.10118 15.8665 2.80143C15.5667 2.50169 15.1602 2.33329 14.7363 2.33329H13.2663C12.8424 2.33329 12.4359 2.50169 12.1361 2.80143C11.8364 3.10118 11.668 3.50772 11.668 3.93163V4.66663H9.33463V1.16663H4.66797C3.73971 1.16663 2.84947 1.53537 2.19309 2.19175C1.53672 2.84813 1.16797 3.73837 1.16797 4.66663V23.3333C1.16797 24.2615 1.53672 25.1518 2.19309 25.8082C2.84947 26.4645 3.73971 26.8333 4.66797 26.8333H23.3346C24.2629 26.8333 25.1531 26.4645 25.8095 25.8082C26.4659 25.1518 26.8346 24.2615 26.8346 23.3333V4.66663C26.8346 3.73837 26.4659 2.84813 25.8095 2.19175C25.1531 1.53537 24.2629 1.16663 23.3346 1.16663ZM24.5013 23.3333C24.5013 23.6427 24.3784 23.9395 24.1596 24.1583C23.9408 24.377 23.6441 24.5 23.3346 24.5H4.66797C4.35855 24.5 4.0618 24.377 3.84301 24.1583C3.62422 23.9395 3.5013 23.6427 3.5013 23.3333V4.66663C3.5013 4.35721 3.62422 4.06046 3.84301 3.84167C4.0618 3.62288 4.35855 3.49996 4.66797 3.49996H7.0013V6.99996H21.0013V3.49996H23.3346C23.6441 3.49996 23.9408 3.62288 24.1596 3.84167C24.3784 4.06046 24.5013 4.35721 24.5013 4.66663V23.3333Z" fill="#0E99FF"/>
</svg>
