<svg xmlns="http://www.w3.org/2000/svg" width="34" height="34" viewBox="0 0 34 34">
  <g id="Group_4" data-name="Group 4" transform="translate(-724 -426)">
    <g id="Group_3" data-name="Group 3">
      <g id="card-location" transform="translate(724 426)">
        <circle id="Ellipse_2" data-name="Ellipse 2" cx="17" cy="17" r="17" fill="#0e99ff"/>
        <path id="Path_2" data-name="Path 2" d="M17,7a6.5,6.5,0,0,0-2.693.5,6.784,6.784,0,0,0-2.29,1.576,7.215,7.215,0,0,0-1.517,2.4,7.521,7.521,0,0,0-.5,2.834c0,6.12,6.483,11.781,6.756,12.014a.354.354,0,0,0,.479,0c.287-.272,6.763-6.5,6.763-12.014a7.521,7.521,0,0,0-.5-2.834,7.215,7.215,0,0,0-1.517-2.4A6.784,6.784,0,0,0,19.693,7.5,6.5,6.5,0,0,0,17,7Zm0,10.873a3.2,3.2,0,0,1-1.842-.589,3.462,3.462,0,0,1-1.221-1.568,3.671,3.671,0,0,1-.189-2.019,3.556,3.556,0,0,1,.907-1.789,3.266,3.266,0,0,1,1.7-.957,3.158,3.158,0,0,1,1.915.2,3.359,3.359,0,0,1,1.488,1.287,3.631,3.631,0,0,1,.559,1.942,3.593,3.593,0,0,1-.971,2.471A3.231,3.231,0,0,1,17,17.875Z" fill="#fff"/>
      </g>
      <circle id="Ellipse_3" data-name="Ellipse 3" cx="11" cy="11" r="11" transform="translate(730 432)" fill="#0e99ff"/>
    </g>
    <g id="_9653427611715236948" data-name="9653427611715236948" transform="translate(728 431)">
      <path id="Path_3" data-name="Path 3" d="M13.816,20.217H5.342a1.405,1.405,0,0,1-1.405-1.4V8.072H20.332v4.993a.468.468,0,0,0,.937,0V5.737A2.342,2.342,0,0,0,18.927,3.4H17.521a1.405,1.405,0,0,0-2.811,0H9.558a1.405,1.405,0,0,0-2.811,0H5.342A2.342,2.342,0,0,0,3,5.737V18.816a2.342,2.342,0,0,0,2.342,2.336h8.474a.467.467,0,1,0,0-.934ZM15.648,3.4a.468.468,0,0,1,.937,0v.934a.468.468,0,0,1-.937,0Zm-7.963,0a.468.468,0,0,1,.937,0v.934a.468.468,0,0,1-.937,0ZM3.937,5.737a1.405,1.405,0,0,1,1.405-1.4H6.747a1.405,1.405,0,0,0,2.811,0h5.153a1.405,1.405,0,0,0,2.811,0h1.405a1.405,1.405,0,0,1,1.405,1.4v1.4H3.937Z" transform="translate(0 0)" fill="#fff"/>
      <path id="Path_4" data-name="Path 4" d="M11.1,19.886A.887.887,0,0,0,10.214,19H8.886A.887.887,0,0,0,8,19.886v1.328a.887.887,0,0,0,.886.886h1.328a.887.887,0,0,0,.886-.886ZM8.886,21.214V19.886h1.328v1.328Z" transform="translate(-2.786 -9.015)" fill="#fff"/>
      <path id="Path_5" data-name="Path 5" d="M22.1,19.886A.887.887,0,0,0,21.214,19H19.886a.887.887,0,0,0-.886.886v1.328a.887.887,0,0,0,.886.886h1.328a.887.887,0,0,0,.886-.886Zm-2.214,1.328V19.886h1.328v1.328Z" transform="translate(-8.471 -9.015)" fill="#fff"/>
      <path id="Path_6" data-name="Path 6" d="M30.886,19a.887.887,0,0,0-.886.886v1.328a.887.887,0,0,0,.886.886h1.328a.887.887,0,0,0,.886-.886V19.886A.887.887,0,0,0,32.214,19Zm0,2.214V19.886h1.328v1.328Z" transform="translate(-14.295 -9.015)" fill="#fff"/>
      <path id="Path_7" data-name="Path 7" d="M10.214,30H8.886A.887.887,0,0,0,8,30.886v1.328a.887.887,0,0,0,.886.886h1.328a.887.887,0,0,0,.886-.886V30.886A.887.887,0,0,0,10.214,30ZM8.886,32.214V30.886h1.328v1.328Z" transform="translate(-2.786 -14.847)" fill="#fff"/>
      <path id="Path_8" data-name="Path 8" d="M21.214,30H19.886a.887.887,0,0,0-.886.886v1.328a.887.887,0,0,0,.886.886h1.328a.887.887,0,0,0,.886-.886V30.886A.887.887,0,0,0,21.214,30Zm-1.328,2.214V30.886h1.328v1.328Z" transform="translate(-8.471 -14.847)" fill="#fff"/>
      <path id="Path_9" data-name="Path 9" d="M31.985,28a3.985,3.985,0,1,0,3.985,3.985A3.99,3.99,0,0,0,31.985,28Zm0,7.085a3.1,3.1,0,1,1,3.1-3.1A3.1,3.1,0,0,1,31.985,35.085Z" transform="translate(-12.931 -13.491)" fill="#fff"/>
      <path id="Path_10" data-name="Path 10" d="M35.787,34.13l-1.458,1.458-.573-.573a.443.443,0,0,0-.626.626l.886.886a.443.443,0,0,0,.626,0l1.771-1.771a.443.443,0,0,0-.626-.626Z" transform="translate(-15.717 -16.834)" fill="#fff"/>
    </g>
  </g>
</svg>
