<svg width="49" height="49" viewBox="0 0 49 49" fill="none" xmlns="http://www.w3.org/2000/svg">
<circle cx="24.0159" cy="24.9841" r="24.0159" fill="#0E99FF"/>
<g clip-path="url(#clip0_10066_1440)">
<path fill-rule="evenodd" clip-rule="evenodd" d="M29.9129 23.0168V20.9382C30.0058 20.5611 30.18 20.3657 30.3774 20.3312C31.0626 20.2093 30.9534 22.8719 29.9129 23.0168ZM17.302 34.9065C17.7502 34.9065 18.1149 35.2675 18.1149 35.7113C18.1149 36.1551 17.7502 36.5161 17.302 36.5161C16.8538 36.5161 16.4891 36.1551 16.4891 35.7113C16.4891 35.2652 16.8538 34.9065 17.302 34.9065ZM20.5511 19.9127C20.4629 19.9449 20.3677 19.8943 20.3375 19.8C20.3073 19.7058 20.3537 19.6023 20.442 19.5701C20.781 19.4436 21.1201 19.3862 21.4615 19.3885C21.8006 19.3908 22.1374 19.4528 22.4741 19.5678C22.5624 19.5977 22.6111 19.6989 22.5833 19.7931C22.5554 19.8874 22.4625 19.9403 22.3743 19.9104C22.2628 19.8713 22.1513 19.8391 22.0398 19.8161C22.0514 19.8552 22.0561 19.8943 22.0561 19.9357C22.0561 20.1817 21.8447 20.3818 21.5869 20.3818C21.3268 20.3818 21.1178 20.1817 21.1178 19.9357C21.1178 19.8759 21.1317 19.8184 21.1526 19.7656C20.9506 19.7908 20.7509 19.8368 20.5511 19.9127ZM26.0089 19.7793C25.988 19.8276 25.9741 19.7862 25.9741 19.938C25.9741 20.0898 26.1854 20.3841 26.4432 20.3841C26.7033 20.3841 26.9123 20.184 26.9123 19.938C26.9123 19.8667 26.8961 19.8 26.8636 19.7403C27.0679 19.761 27.277 19.8046 27.4837 19.869C27.5719 19.8966 27.6648 19.8414 27.6904 19.7449C27.7159 19.6483 27.6648 19.5494 27.5742 19.5218C27.2352 19.4161 26.8961 19.3655 26.5593 19.3655C26.2226 19.3655 25.8881 19.4184 25.556 19.5241C25.4678 19.5517 25.4167 19.6529 25.4422 19.7472C25.4678 19.8437 25.5607 19.8989 25.6489 19.869C25.772 19.8322 25.8928 19.8023 26.0089 19.7793ZM24.0139 37.96L20.2306 26.9463L21.3756 28.0086C21.3826 28.0155 21.3919 28.0224 21.4011 28.0293C21.5684 28.1603 21.7449 28.2638 21.926 28.3443C22.1048 28.4225 22.293 28.4822 22.4857 28.5259C22.8225 28.5995 23.561 28.6478 24.2647 28.6478C24.8918 28.6478 25.5026 28.611 25.8022 28.519C26.0019 28.457 26.1947 28.3719 26.3805 28.2592C26.5616 28.1488 26.7358 28.0109 26.903 27.8453L27.767 27.0498L24.0139 37.96ZM20.1354 26.8566C19.2366 27.8591 18.0916 28.1029 16.8422 28.027C16.4891 28.0362 16.1477 28.0638 15.8226 28.1121C15.4649 29.241 15.3697 30.278 15.5067 31.2299C15.6391 32.1543 15.9945 33.0004 16.5356 33.7684C16.7725 33.6764 17.0326 33.6258 17.302 33.6258C18.4656 33.6258 19.4062 34.5593 19.4062 35.709C19.4062 36.8609 18.4632 37.7922 17.302 37.7922C16.1408 37.7922 15.1979 36.8587 15.1979 35.709C15.1979 35.0951 15.4649 34.5432 15.8923 34.1639C15.2977 33.3085 14.9076 32.3658 14.7589 31.3357C14.6219 30.3907 14.6892 29.3744 14.9842 28.2891C13.1704 28.7927 11.8977 30.0435 11.3008 32.237V39.112H36.7294V32.237C36.1255 30.0136 34.8226 28.7582 32.9716 28.2684C33.0227 28.5075 33.0506 28.7605 33.0552 29.0157C33.0599 29.3537 33.025 29.7009 32.9484 30.0297C33.0668 30.0711 33.183 30.1171 33.2944 30.1653C33.5244 30.2665 33.7357 30.3861 33.9192 30.5286C34.5253 31.0023 34.7808 31.5679 34.8528 32.1864C34.9178 32.7613 34.818 33.3568 34.7018 33.9592L34.6995 33.9707C34.6902 34.0259 34.667 34.1501 34.6461 34.2765C34.4998 35.1181 34.3349 36.0585 33.6939 36.6977C33.4663 36.9253 33.2039 37.084 32.9066 37.1714C32.8694 37.1829 32.8323 37.192 32.7928 37.2012C32.6465 37.4496 32.3747 37.6174 32.0635 37.6174C31.599 37.6174 31.2205 37.2426 31.2205 36.7828C31.2205 36.3206 31.599 35.9481 32.0635 35.9481C32.3933 35.9481 32.679 36.1344 32.8183 36.408C32.9414 36.3528 33.0552 36.2746 33.1597 36.1712C33.6335 35.7021 33.7752 34.8835 33.9029 34.1524C33.9169 34.0719 33.9308 33.9937 33.9587 33.8396L33.961 33.8259C34.0655 33.2809 34.1561 32.7452 34.1027 32.2715C34.0539 31.8438 33.8751 31.4484 33.4547 31.1196C33.32 31.0138 33.1621 30.9264 32.9902 30.8505C32.8114 30.7724 32.607 30.7034 32.384 30.639V30.6367C32.3771 30.6344 32.3701 30.6321 32.3655 30.6298C32.3283 30.616 32.2935 30.5999 32.2633 30.5769C32.2261 30.5815 32.1866 30.5792 32.1471 30.5723C31.8777 30.5194 31.6014 30.501 31.3482 30.5102C31.0997 30.5194 30.8721 30.5585 30.6933 30.6229C29.7155 30.9724 29.5042 31.945 29.2952 32.8946L29.2905 32.9084C29.2743 32.9797 29.258 33.0579 29.2278 33.1935C29.186 33.3729 29.1442 33.5315 29.1047 33.681C28.9584 34.2305 28.8307 34.7111 29.0095 35.2882C29.056 35.4354 29.1047 35.5641 29.1628 35.6745C29.3161 35.509 29.5367 35.4055 29.7829 35.4055C30.2497 35.4055 30.6259 35.7803 30.6259 36.2401C30.6259 36.7023 30.2474 37.0748 29.7829 37.0748C29.4717 37.0748 29.2023 36.9092 29.056 36.6609C28.9654 36.6057 28.8795 36.539 28.8005 36.4563C28.5799 36.2309 28.4126 35.9067 28.2895 35.5067C28.048 34.7272 28.2013 34.1501 28.3755 33.4902C28.415 33.3361 28.4591 33.1797 28.4916 33.028C28.5032 32.9797 28.5264 32.867 28.552 32.7475C28.552 32.7429 28.5543 32.7383 28.5543 32.7337C28.8051 31.584 29.0606 30.4091 30.4355 29.917C30.6863 29.8273 30.9929 29.7745 31.318 29.7607C31.6107 29.7492 31.9195 29.7676 32.2238 29.8228C32.2795 29.5652 32.3074 29.2939 32.3028 29.0272C32.2981 28.6915 32.2424 28.3696 32.1402 28.1029C31.8359 28.0615 31.5178 28.0362 31.1903 28.027C29.9594 28.1029 28.8284 27.8637 27.9342 26.898L28.0201 26.8198C28.1363 26.7118 28.2617 26.6014 28.3801 26.4956C29.3323 25.6449 29.9455 25.0977 29.8781 23.495C29.8781 23.4904 29.8781 23.4858 29.8781 23.4812V23.3801C29.9083 23.3824 29.9408 23.3824 29.971 23.3778C30.691 23.2766 31.0788 22.442 31.1717 21.6395C31.1973 21.4188 31.2019 21.2003 31.1857 21.0049C31.1694 20.7956 31.1276 20.6002 31.0602 20.4438C30.9279 20.1288 30.7072 19.9426 30.3937 19.9656L30.7839 19.7357C30.8303 19.1378 30.979 18.3239 31.0951 17.5582C31.1485 17.2018 31.1694 16.8638 31.1601 16.5419C31.3714 14.8427 31.0231 13.6494 30.2079 12.8791C28.6565 11.3708 26.5175 10.8166 24.0116 10.8626C21.7611 10.8465 20.1261 11.4857 18.9672 12.6354C17.7502 12.4606 17.0094 13.0677 16.8166 14.5783V15.8406C16.8631 16.6224 17.1185 16.9029 17.4344 16.8431C17.4437 16.9765 17.4553 17.1121 17.4762 17.2501C17.6062 18.11 17.8129 19.0436 17.8919 19.8L18.1845 19.9564V20.2346C18.0545 20.0921 17.8966 20.0093 17.7247 19.9794C17.367 19.9173 17.1185 20.1058 16.9745 20.4484C16.9095 20.6048 16.8677 20.8002 16.8491 21.0095C16.8329 21.2049 16.8375 21.4234 16.8631 21.6441C16.956 22.4443 17.3438 23.2812 18.0638 23.3824C18.1033 23.387 18.1427 23.387 18.1822 23.3824V24.0676C18.1822 24.0929 18.1845 24.1159 18.1892 24.1411C18.4563 25.3598 18.7768 25.6403 19.448 26.2358C19.5687 26.3416 19.6988 26.4589 19.8335 26.5807L20.1354 26.8566ZM29.4763 18.2779C25.7999 15.7808 23.5378 13.7138 20.4722 15.5532C19.3806 16.2085 19.0438 17.549 18.5468 18.2986C18.5468 20.2208 18.5468 22.1384 18.5468 24.0607C18.8372 25.3782 19.1948 25.4908 20.0843 26.3163L21.6287 27.7511C21.9074 27.9695 22.221 28.0983 22.5577 28.1718C23.1453 28.3029 25.1171 28.3443 25.6698 28.1764C26.0043 28.073 26.3224 27.8844 26.6151 27.5947L27.7368 26.5623C28.8214 25.5644 29.5553 25.1344 29.4786 23.4835C29.4763 21.743 29.4763 20.0139 29.4763 18.2779ZM22.0212 17.9514C22.1676 17.9445 22.293 18.0549 22.2999 18.1928C22.3069 18.3331 22.1931 18.4503 22.0445 18.4572C21.6357 18.4756 21.285 18.5538 20.9924 18.6872C20.7067 18.8182 20.4745 19.0045 20.2887 19.239C20.2004 19.3517 20.0332 19.3747 19.9148 19.2919C19.7963 19.2091 19.7708 19.0505 19.859 18.9378C20.0959 18.6343 20.3932 18.3975 20.7578 18.2296C21.1155 18.0664 21.5358 17.9721 22.0212 17.9514ZM26.2342 18.4067C26.0879 18.4067 25.9671 18.2917 25.9694 18.1514C25.9694 18.0112 26.0902 17.8985 26.2365 17.8985C26.6778 17.9008 27.0819 17.979 27.4465 18.1399C27.8134 18.3032 28.1339 18.5492 28.4057 18.8826C28.4962 18.993 28.4753 19.1516 28.3569 19.239C28.2408 19.3241 28.0712 19.3034 27.983 19.193C27.7647 18.924 27.5092 18.7286 27.2212 18.5998C26.9286 18.471 26.5988 18.409 26.2342 18.4067ZM23.431 22.8742C23.3381 22.8006 23.3265 22.6696 23.4031 22.5822C23.4797 22.4948 23.6191 22.4833 23.7097 22.5569C23.8188 22.6443 23.9233 22.6903 24.0232 22.6903C24.1231 22.6926 24.2322 22.6489 24.3507 22.5569C24.4436 22.4833 24.5806 22.4971 24.6572 22.5845C24.7339 22.6719 24.7199 22.8029 24.627 22.8742C24.425 23.0306 24.2229 23.1042 24.0162 23.1019C23.8142 23.0996 23.6191 23.0214 23.431 22.8742ZM22.7458 25.6035C22.6344 25.546 22.5902 25.415 22.6506 25.3092C22.711 25.2034 22.848 25.162 22.9618 25.2195C23.3148 25.3966 23.6632 25.4885 24.0046 25.4885C24.346 25.4885 24.6897 25.4012 25.0311 25.2218C25.1426 25.1643 25.282 25.2034 25.3424 25.3069C25.4027 25.4127 25.3633 25.5437 25.2518 25.6012C24.8407 25.8173 24.425 25.9231 24.0046 25.9208C23.5843 25.9208 23.1639 25.815 22.7458 25.6035ZM18.1172 23.0168V20.9382C18.0243 20.5611 17.8501 20.3657 17.6527 20.3312C16.9676 20.2093 17.0767 22.8719 18.1172 23.0168ZM23.6423 35.1227L22.1583 29.1582C23.4565 29.4457 24.4761 29.4733 25.9323 29.1582L24.5225 35.1227H23.6423Z" fill="white"/>
</g>
<defs>
<clipPath id="clip0_10066_1440">
<rect x="11.3008" y="10.8572" width="25.4286" height="28.254" rx="1" fill="white"/>
</clipPath>
</defs>
</svg>
