<svg width="90" height="90" viewBox="0 0 90 90" fill="none" xmlns="http://www.w3.org/2000/svg">
<circle cx="45" cy="45" r="45" fill="#0E99FF"/>
<g clip-path="url(#clip0_12105_389)">
<path fill-rule="evenodd" clip-rule="evenodd" d="M56.4011 39.6687V35.6225C56.5728 34.8884 56.8948 34.508 57.2597 34.4408C58.526 34.2036 58.3242 39.3867 56.4011 39.6687ZM33.0922 62.8136C33.9206 62.8136 34.5946 63.5163 34.5946 64.3802C34.5946 65.244 33.9206 65.9468 33.0922 65.9468C32.2637 65.9468 31.5897 65.244 31.5897 64.3802C31.5897 63.5119 32.2637 62.8136 33.0922 62.8136ZM39.0975 33.6262C38.9344 33.6889 38.7584 33.5904 38.7026 33.4069C38.6468 33.2234 38.7327 33.022 38.8958 32.9593C39.5225 32.7131 40.1492 32.6012 40.7803 32.6057C41.407 32.6102 42.0294 32.731 42.6518 32.9548C42.815 33.013 42.9051 33.2099 42.8536 33.3935C42.8021 33.577 42.6304 33.6799 42.4673 33.6217C42.2612 33.5456 42.0552 33.483 41.8491 33.4382C41.8706 33.5143 41.8792 33.5904 41.8792 33.671C41.8792 34.1499 41.4885 34.5393 41.0121 34.5393C40.5313 34.5393 40.1449 34.1499 40.1449 33.671C40.1449 33.5546 40.1707 33.4427 40.2093 33.3397C39.8359 33.389 39.4667 33.4785 39.0975 33.6262ZM49.1852 33.3666C49.1466 33.4606 49.1208 33.38 49.1208 33.6754C49.1208 33.9708 49.5115 34.5438 49.9879 34.5438C50.4687 34.5438 50.8551 34.1544 50.8551 33.6754C50.8551 33.5367 50.825 33.4069 50.7649 33.2905C51.1427 33.3308 51.529 33.4158 51.911 33.5412C52.0742 33.5949 52.2459 33.4874 52.2931 33.2995C52.3403 33.1115 52.2459 32.919 52.0785 32.8653C51.4517 32.6594 50.825 32.5609 50.2026 32.5609C49.5801 32.5609 48.962 32.6639 48.3482 32.8698C48.185 32.9235 48.0906 33.1204 48.1378 33.3039C48.185 33.4919 48.3567 33.5993 48.5199 33.5412C48.7474 33.4695 48.9706 33.4114 49.1852 33.3666ZM45.4979 68.7576L38.5052 47.318L40.6214 49.3859C40.6343 49.3993 40.6515 49.4127 40.6686 49.4262C40.9777 49.6813 41.304 49.8827 41.6388 50.0394C41.9693 50.1915 42.317 50.3079 42.6733 50.393C43.2957 50.5362 44.6608 50.6302 45.9615 50.6302C47.1205 50.6302 48.2494 50.5586 48.8032 50.3795C49.1723 50.2587 49.5286 50.0931 49.872 49.8738C50.2069 49.6589 50.5288 49.3904 50.8379 49.0681L52.4347 47.5194L45.4979 68.7576ZM38.3292 47.1435C36.6679 49.095 34.5516 49.5694 32.2422 49.4217C31.5897 49.4396 30.9587 49.4933 30.3577 49.5873C29.6967 51.785 29.5207 53.8036 29.774 55.6566C30.0186 57.456 30.6754 59.1031 31.6756 60.598C32.1134 60.419 32.5942 60.3205 33.0922 60.3205C35.2428 60.3205 36.9813 62.1378 36.9813 64.3757C36.9813 66.6181 35.2385 68.4309 33.0922 68.4309C30.9458 68.4309 29.203 66.6137 29.203 64.3757C29.203 63.1806 29.6967 62.1064 30.4865 61.3679C29.3876 59.7029 28.6665 57.8677 28.3917 55.8625C28.1385 54.0229 28.2629 52.0446 28.8081 49.9319C25.4556 50.9122 23.1032 53.3471 22 57.6171V71.0001H69V57.6171C67.8839 53.2889 65.4758 50.845 62.0545 49.8917C62.149 50.3572 62.2005 50.8495 62.2091 51.3463C62.2176 52.0043 62.1533 52.6802 62.0116 53.3202C62.2305 53.4008 62.4452 53.4903 62.6512 53.5843C63.0762 53.7812 63.4668 54.014 63.8059 54.2915C64.9263 55.2135 65.3985 56.3146 65.5316 57.5186C65.6518 58.6376 65.4672 59.7969 65.2525 60.9695L65.2482 60.9919C65.2311 61.0993 65.1881 61.341 65.1495 61.5872C64.8791 63.2254 64.5743 65.056 63.3895 66.3004C62.9689 66.7435 62.4838 67.0523 61.9343 67.2224C61.8657 67.2448 61.797 67.2627 61.724 67.2806C61.4536 67.764 60.9513 68.0907 60.3761 68.0907C59.5176 68.0907 58.8179 67.3611 58.8179 66.466C58.8179 65.5663 59.5176 64.8412 60.3761 64.8412C60.9857 64.8412 61.5137 65.2038 61.7712 65.7364C61.9987 65.629 62.2091 65.4768 62.4022 65.2754C63.2779 64.3623 63.5398 62.7689 63.7759 61.3455C63.8016 61.1889 63.8274 61.0367 63.8789 60.7368L63.8832 60.7099C64.0764 59.6491 64.2438 58.6063 64.145 57.6842C64.0549 56.8517 63.7244 56.0818 62.9474 55.4418C62.6984 55.2359 62.4065 55.0658 62.0889 54.9181C61.7583 54.7659 61.3806 54.6316 60.9685 54.5063V54.5019C60.9556 54.4974 60.9427 54.4929 60.9342 54.4884C60.8655 54.4616 60.8011 54.4302 60.7453 54.3855C60.6766 54.3944 60.6036 54.3899 60.5306 54.3765C60.0327 54.2736 59.5219 54.2378 59.054 54.2557C58.5947 54.2736 58.174 54.3497 57.8435 54.475C56.0363 55.1553 55.6456 57.0486 55.2593 58.8972L55.2507 58.924C55.2207 59.0628 55.1906 59.215 55.1348 59.4791C55.0575 59.8282 54.9803 60.137 54.9073 60.428C54.6369 61.4977 54.4008 62.4332 54.7313 63.5566C54.8172 63.8431 54.9073 64.0937 55.0146 64.3086C55.2979 63.9863 55.7057 63.7849 56.1607 63.7849C57.0236 63.7849 57.719 64.5145 57.719 65.4096C57.719 66.3093 57.0193 67.0344 56.1607 67.0344C55.5855 67.0344 55.0876 66.7121 54.8172 66.2287C54.6497 66.1213 54.4909 65.9915 54.345 65.8304C53.9372 65.3917 53.6281 64.7606 53.4006 63.9818C52.9542 62.4645 53.2375 61.341 53.5594 60.0565C53.6324 59.7566 53.7139 59.4522 53.774 59.1568C53.7955 59.0628 53.8384 58.8435 53.8857 58.6107C53.8857 58.6018 53.8899 58.5928 53.8899 58.5839C54.3535 56.3459 54.8257 54.0587 57.367 53.1009C57.8306 52.9263 58.3972 52.8234 58.9982 52.7965C59.539 52.7741 60.11 52.81 60.6723 52.9174C60.7753 52.4161 60.8268 51.8879 60.8182 51.3687C60.8097 50.7152 60.7066 50.0886 60.5178 49.5694C59.9554 49.4888 59.3673 49.4396 58.7621 49.4217C56.487 49.5694 54.3965 49.1039 52.7438 47.224L52.9026 47.0718C53.1173 46.8615 53.3491 46.6466 53.568 46.4407C55.328 44.7846 56.4612 43.7194 56.3367 40.5997C56.3367 40.5907 56.3367 40.5818 56.3367 40.5728V40.3759C56.3925 40.3804 56.4526 40.3804 56.5084 40.3714C57.8392 40.1745 58.556 38.5497 58.7277 36.9876C58.775 36.5579 58.7835 36.1327 58.7535 35.7523C58.7234 35.3449 58.6462 34.9645 58.5217 34.6601C58.277 34.0469 57.8692 33.6844 57.2897 33.7291L58.0109 33.2816C58.0967 32.1178 58.3715 30.5333 58.5861 29.0429C58.6848 28.3491 58.7234 27.6911 58.7063 27.0645C59.0969 23.7568 58.453 21.4338 56.9463 19.9344C54.0788 16.9982 50.1253 15.9195 45.4936 16.009C41.334 15.9777 38.312 17.222 36.17 19.4599C33.9206 19.1198 32.5513 20.3014 32.195 23.2421V25.6994C32.2808 27.2212 32.753 27.7672 33.3368 27.6509C33.354 27.9105 33.3755 28.1745 33.4141 28.4431C33.6545 30.1171 34.0365 31.9343 34.1825 33.4069L34.7234 33.7112V34.2528C34.483 33.9753 34.1911 33.8142 33.8734 33.756C33.2123 33.6352 32.753 34.0022 32.4869 34.6691C32.3667 34.9734 32.2894 35.3539 32.2551 35.7612C32.225 36.1417 32.2336 36.5669 32.2808 36.9966C32.4526 38.5542 33.1694 40.1834 34.5001 40.3804C34.5731 40.3893 34.6461 40.3893 34.7191 40.3804V41.7142C34.7191 41.7634 34.7234 41.8082 34.7319 41.8574C35.2256 44.2296 35.818 44.7757 37.0585 45.935C37.2818 46.1408 37.5222 46.3691 37.7711 46.6063L38.3292 47.1435ZM55.5941 30.4438C48.7989 25.583 44.6179 21.5591 38.9516 25.1399C36.9341 26.4155 36.3116 29.025 35.393 30.4841C35.393 34.226 35.393 37.9589 35.393 41.7007C35.9296 44.2654 36.5906 44.4848 38.2347 46.0916L41.0893 48.8846C41.6044 49.3098 42.1839 49.5604 42.8064 49.7037C43.8924 49.9588 47.5369 50.0394 48.5585 49.7126C49.1766 49.5112 49.7647 49.1442 50.3056 48.5802L52.3789 46.5705C54.3836 44.628 55.7401 43.791 55.5984 40.5773C55.5941 37.189 55.5941 33.8231 55.5941 30.4438ZM41.8148 29.8082C42.0852 29.7948 42.317 30.0097 42.3299 30.2782C42.3428 30.5512 42.1324 30.7795 41.8577 30.7929C41.1022 30.8288 40.454 30.9809 39.9131 31.2405C39.3851 31.4957 38.9559 31.8582 38.6125 32.3148C38.4494 32.5341 38.1403 32.5788 37.9214 32.4177C37.7024 32.2566 37.6552 31.9477 37.8183 31.7284C38.2562 31.1376 38.8056 30.6766 39.4796 30.3498C40.1407 30.032 40.9176 29.8485 41.8148 29.8082ZM49.6016 30.6945C49.3312 30.6945 49.108 30.4707 49.1122 30.1977C49.1122 29.9246 49.3355 29.7053 49.6059 29.7053C50.4215 29.7098 51.1684 29.862 51.8424 30.1753C52.5206 30.4931 53.113 30.972 53.6152 31.621C53.7826 31.8358 53.744 32.1447 53.5251 32.3148C53.3104 32.4804 52.9971 32.4401 52.834 32.2252C52.4305 31.7016 51.9583 31.3211 51.426 31.0705C50.8851 30.8198 50.2756 30.699 49.6016 30.6945ZM44.4204 39.3912C44.2487 39.2479 44.2272 38.9928 44.3689 38.8227C44.5105 38.6526 44.7681 38.6303 44.9355 38.7735C45.1373 38.9436 45.3304 39.0331 45.515 39.0331C45.6996 39.0376 45.9014 38.9525 46.1203 38.7735C46.292 38.6303 46.5453 38.6571 46.6869 38.8272C46.8286 38.9973 46.8028 39.2524 46.6311 39.3912C46.2577 39.6955 45.8842 39.8388 45.5021 39.8343C45.1287 39.8298 44.7681 39.6776 44.4204 39.3912ZM43.1541 44.7041C42.948 44.5922 42.8665 44.3371 42.9781 44.1312C43.0897 43.9253 43.343 43.8447 43.5533 43.9566C44.2058 44.3012 44.8497 44.4803 45.4807 44.4803C46.1117 44.4803 46.747 44.3102 47.378 43.9611C47.5841 43.8492 47.8416 43.9253 47.9532 44.1267C48.0648 44.3326 47.9919 44.5877 47.7858 44.6996C47.026 45.1203 46.2577 45.3262 45.4807 45.3218C44.7037 45.3218 43.9268 45.1159 43.1541 44.7041ZM34.5989 39.6687V35.6225C34.4272 34.8884 34.1052 34.508 33.7403 34.4408C32.474 34.2036 32.6758 39.3867 34.5989 39.6687ZM44.811 63.2344L42.068 51.6238C44.4676 52.1833 46.3521 52.237 49.0436 51.6238L46.4379 63.2344H44.811Z" fill="white"/>
</g>
<defs>
<clipPath id="clip0_12105_389">
<rect x="22" y="16" width="47" height="55" rx="4" fill="white"/>
</clipPath>
</defs>
</svg>
