<svg width="94" height="94" viewBox="0 0 94 94" fill="none" xmlns="http://www.w3.org/2000/svg">
<circle cx="47" cy="47" r="47" fill="#0E99FF"/>
<path d="M40.5547 22C38.2954 22 36.4444 23.851 36.4444 26.1102V38.0004C36.4444 40.2597 38.2954 42.1107 40.5547 42.1107H52.4449C54.7041 42.1107 56.5551 40.2597 56.5551 38.0004V26.1102C56.5552 26.0856 56.5545 26.061 56.553 26.0365C56.4053 23.8204 54.5935 22 52.3342 22H40.5547ZM40.5547 24.2222H52.3342C53.4066 24.2222 54.2561 25.0651 54.3329 26.1797V38.0004C54.3329 39.0745 53.519 39.8885 52.4449 39.8885H40.5547C39.4806 39.8885 38.6667 39.0745 38.6667 38.0004V26.1102C38.6667 25.0362 39.4806 24.2222 40.5547 24.2222ZM45.3333 27.5556V30.8889H42V33.1111H45.3333V36.4444H47.5556V33.1111H50.8889V30.8889H47.5556V27.5556H45.3333ZM26.1102 30.8889C23.8436 30.8889 22 32.7325 22 34.9991V72H42V58.6667H50.8889V72H72V34.9991C72 32.7325 70.1564 30.8889 67.8898 30.8889H58.7773V38.0004C58.7773 41.4893 55.9338 44.3329 52.4449 44.3329H40.5547C37.0658 44.3329 34.2222 41.4893 34.2222 38.0004V30.8889H26.1102ZM27.5556 46.4444H35.3333V53.1111H27.5556V46.4444ZM42 46.4444H50.8889V53.1111H42V46.4444ZM57.5556 46.4444H65.3333V53.1111H57.5556V46.4444ZM27.5556 58.6667H35.3333V65.3333H27.5556V58.6667ZM57.5556 58.6667H65.3333V65.3333H57.5556V58.6667Z" fill="white"/>
</svg>
