<svg width="94" height="94" viewBox="0 0 94 94" fill="none" xmlns="http://www.w3.org/2000/svg">
<circle cx="47" cy="47" r="47" fill="#0E99FF"/>
<path d="M70.5211 46.3818H76.8896V40.6509C76.8896 39.4607 75.9191 38.4902 74.729 38.4902H38.8555C38.9689 38.724 39.0751 38.9578 39.1814 39.1986C39.904 40.913 40.2723 42.7336 40.2723 44.6108C40.2723 45.2058 40.2369 45.801 40.1589 46.3818H70.5211Z" fill="white"/>
<path d="M26.3764 33.1915C26.1355 33.1915 25.9017 33.1986 25.668 33.2128V46.3749H33.5383H37.6542C37.7463 45.794 37.7887 45.206 37.7887 44.6039C37.7887 42.3512 37.137 40.2544 36.0107 38.4904C33.9917 35.3026 30.4284 33.1915 26.3764 33.1915Z" fill="white"/>
<path d="M16.7502 66.3303H21.0644C22.2403 66.3303 23.1896 65.3811 23.1896 64.2051V57.4257H70.5251V64.2051C70.5251 65.3811 71.4744 66.3303 72.6503 66.3303H76.9645C78.1404 66.3303 79.0897 65.3811 79.0897 64.2051V50.9863C79.0897 49.8103 78.1404 48.8611 76.9645 48.8611H70.5251H23.1896V33.6446V29.2808C23.1896 28.1049 22.2403 27.1556 21.0644 27.1556H16.7502C15.5743 27.1556 14.625 28.1049 14.625 29.2808V37.1937V39.9211V49.2932V52.0206V64.2051C14.625 65.374 15.5743 66.3303 16.7502 66.3303Z" fill="white"/>
</svg>
