<svg width="100" height="100" viewBox="0 0 100 100" fill="none" xmlns="http://www.w3.org/2000/svg">
<circle cx="50" cy="50" r="50" fill="#0E99FF"/>
<g clip-path="url(#clip0_12105_430)">
<mask id="mask0_12105_430" style="mask-type:luminance" maskUnits="userSpaceOnUse" x="20" y="20" width="60" height="60">
<path d="M80 20H20V80H80V20Z" fill="white"/>
</mask>
<g mask="url(#mask0_12105_430)">
<path d="M76.8955 56.752L71.2337 44.7372V44.5378C71.2337 30.8795 60.1619 20 46.6803 20C33.2017 20 22.1426 30.8961 22.1426 44.5378C22.1426 51.707 25.2576 58.4976 30.688 63.1692C35.1675 67.0226 37.7367 72.3956 37.7367 77.9118V79.0516C37.7367 79.5752 38.1615 80 38.6851 80H62.9309C63.4545 80 63.8793 79.5752 63.8793 79.0516V69.0904H65.7539C68.3551 69.0904 70.4711 66.9744 70.4711 64.3732V61.3854H74.0849C76.5113 61.3854 78.0015 58.77 76.8955 56.752ZM74.0849 59.4886H69.5227C68.9991 59.4886 68.5743 59.9134 68.5743 60.437V64.3732C68.5743 65.9284 67.3091 67.1936 65.7539 67.1936H62.9309C62.4073 67.1936 61.9825 67.6184 61.9825 68.142V78.1032H39.6335V77.9118C39.6335 71.8424 36.8241 65.9452 31.9254 61.7318C26.9136 57.4208 24.0394 51.1536 24.0394 44.5378C24.0394 31.9516 34.2439 21.8968 46.6805 21.8968C59.0815 21.8968 69.3369 31.9001 69.3369 44.5378V44.9496C69.3369 45.0892 69.3677 45.2274 69.4277 45.354L75.2057 57.611C75.6729 58.4676 75.0361 59.4886 74.0849 59.4886Z" fill="white"/>
<path d="M52.0736 45.8536V30.3639C52.0736 27.0186 49.352 24.2969 46.0066 24.2969C42.6614 24.2969 39.9396 27.0186 39.9396 30.3639V45.8536C36.9605 48.0308 35.3823 51.6156 35.8009 55.3338C36.327 60.0166 40.1082 63.8076 44.7922 64.3486C51.0288 65.063 56.2796 60.1988 56.2796 54.1416C56.2796 50.847 54.7168 47.7862 52.0736 45.8536ZM45.0094 62.464C41.1942 62.0238 38.1145 58.936 37.6853 55.1214C37.3278 51.9434 38.7548 48.8866 41.4086 47.1428C41.6758 46.9676 41.8364 46.6692 41.8364 46.35V30.3639C41.8364 28.0645 43.7072 26.1937 46.0066 26.1937C48.306 26.1937 50.1768 28.0645 50.1768 30.3639V46.35C50.1768 46.6692 50.3374 46.9676 50.6048 47.1428C52.9702 48.697 54.3828 51.3138 54.3828 54.1416C54.3828 59.0126 50.1748 63.0612 45.0094 62.464Z" fill="white"/>
<path d="M54.8857 30.2562H56.6925C57.2161 30.2562 57.6409 29.8314 57.6409 29.3078C57.6409 28.7842 57.2161 28.3594 56.6925 28.3594H54.8857C54.3623 28.3594 53.9375 28.7842 53.9375 29.3078C53.9373 29.8313 54.3621 30.2562 54.8857 30.2562Z" fill="white"/>
<path d="M57.8007 32.6406H54.8857C54.3621 32.6406 53.9375 33.0654 53.9375 33.589C53.9375 34.1126 54.3621 34.5374 54.8857 34.5374H57.8007C58.3243 34.5374 58.7491 34.1126 58.7491 33.589C58.7491 33.0654 58.3243 32.6406 57.8007 32.6406Z" fill="white"/>
<path d="M54.8857 38.8343H56.6925C57.2161 38.8343 57.6409 38.4095 57.6409 37.8859C57.6409 37.3623 57.2161 36.9375 56.6925 36.9375H54.8857C54.3623 36.9375 53.9375 37.3623 53.9375 37.8859C53.9373 38.4095 54.3621 38.8343 54.8857 38.8343Z" fill="white"/>
<path d="M57.8007 41.2344H54.8857C54.3621 41.2344 53.9375 41.6592 53.9375 42.1828C53.9375 42.7064 54.3621 43.1312 54.8857 43.1312H57.8007C58.3243 43.1312 58.7491 42.7064 58.7491 42.1828C58.7491 41.6592 58.3243 41.2344 57.8007 41.2344Z" fill="white"/>
<path d="M46.9606 49.244V37.2765C46.9606 36.7529 46.5358 36.3281 46.0122 36.3281C45.4886 36.3281 45.0639 36.7529 45.0639 37.2765V49.244C42.7703 49.6886 41.0312 51.7074 41.0312 54.129C41.0312 56.8754 43.2658 59.1092 46.0122 59.1092C48.7586 59.1092 50.993 56.8754 50.993 54.129C50.993 51.7074 49.2542 49.6886 46.9606 49.244ZM46.0122 57.2126C44.3118 57.2126 42.928 55.8294 42.928 54.129C42.928 52.4286 44.3118 51.0448 46.0122 51.0448C47.7126 51.0448 49.0963 52.4286 49.0963 54.129C49.0963 55.8294 47.7126 57.2126 46.0122 57.2126Z" fill="white"/>
</g>
</g>
<defs>
<clipPath id="clip0_12105_430">
<rect width="60" height="60" fill="white" transform="translate(20 20)"/>
</clipPath>
</defs>
</svg>
