<svg width="49" height="49" viewBox="0 0 49 49" fill="none" xmlns="http://www.w3.org/2000/svg">
<circle cx="24.0159" cy="24.0159" r="24.0159" fill="#0E99FF"/>
<path fill-rule="evenodd" clip-rule="evenodd" d="M19.625 17C19.625 17.483 19.233 17.875 18.75 17.875C18.267 17.875 17.875 17.483 17.875 17V14.6667C17.875 13.5385 18.7897 12.625 19.9167 12.625H28.0833C29.2103 12.625 30.125 13.5385 30.125 14.6667V17C30.125 17.483 29.733 17.875 29.25 17.875C28.767 17.875 28.375 17.483 28.375 17V14.6667C28.375 14.5057 28.2443 14.375 28.0833 14.375H19.9167C19.7557 14.375 19.625 14.5057 19.625 14.6667V17Z" fill="white"/>
<path fill-rule="evenodd" clip-rule="evenodd" d="M26.3346 24.5833C26.3346 24.2613 26.0733 24 25.7513 24C24.8541 24 23.1485 24 22.2513 24C21.9293 24 21.668 24.2613 21.668 24.5833C21.668 25.3592 21.668 26.7242 21.668 27.5C21.668 27.822 21.9293 28.0833 22.2513 28.0833C23.1485 28.0833 24.8541 28.0833 25.7513 28.0833C26.0733 28.0833 26.3346 27.822 26.3346 27.5C26.3346 26.7242 26.3346 25.3592 26.3346 24.5833Z" fill="white"/>
<path fill-rule="evenodd" clip-rule="evenodd" d="M27.5013 26.9797L35.2795 25.0349C35.5186 24.9754 35.7461 24.889 35.9596 24.7805V32.1667C35.9596 33.9389 34.5235 35.375 32.7513 35.375H15.2513C13.4791 35.375 12.043 33.9389 12.043 32.1667V24.7805C12.2565 24.889 12.484 24.9754 12.7231 25.0349L20.5013 26.9797V27.5C20.5013 28.466 21.2853 29.25 22.2513 29.25H25.7513C26.7173 29.25 27.5013 28.466 27.5013 27.5V26.9797Z" fill="white"/>
<path fill-rule="evenodd" clip-rule="evenodd" d="M20.5007 25.7768L13.006 23.9032C12.0972 23.6757 11.459 22.859 11.459 21.9222V18.1667C11.459 17.6253 11.6737 17.1062 12.0575 16.7235C12.4402 16.3397 12.9593 16.125 13.5007 16.125H34.5007C35.042 16.125 35.5612 16.3397 35.9438 16.7235C36.3277 17.1062 36.5423 17.6253 36.5423 18.1667V21.9222C36.5423 22.859 35.9042 23.6757 34.9953 23.9032L27.5007 25.7768V24.5833C27.5007 23.6173 26.7167 22.8333 25.7507 22.8333H22.2507C21.2847 22.8333 20.5007 23.6173 20.5007 24.5833V25.7768Z" fill="white"/>
</svg>
