<svg width="36" height="36" viewBox="0 0 36 36" fill="none" xmlns="http://www.w3.org/2000/svg">
<g clip-path="url(#clip0_10057_1781)">
<path fill-rule="evenodd" clip-rule="evenodd" d="M18 0C8.064 0 0 8.064 0 18C0 27.936 8.064 36 18 36C27.936 36 36 27.936 36 18C36 8.064 27.936 0 18 0ZM13.122 25.722L6.66 19.26C5.958 18.558 5.958 17.424 6.66 16.722C7.362 16.02 8.496 16.02 9.198 16.722L14.4 21.906L26.784 9.522C27.486 8.82 28.62 8.82 29.322 9.522C30.024 10.224 30.024 11.358 29.322 12.06L15.66 25.722C14.976 26.424 13.824 26.424 13.122 25.722Z" fill="#0E99FF"/>
</g>
<defs>
<clipPath id="clip0_10057_1781">
<rect width="36" height="36" fill="white"/>
</clipPath>
</defs>
</svg>
