<svg width="34" height="34" viewBox="0 0 34 34" fill="none" xmlns="http://www.w3.org/2000/svg">
<circle cx="17" cy="17" r="17" fill="#0E99FF"/>
<path d="M23.417 9.75C23.8864 9.75015 24.25 10.1437 24.25 10.6074C24.2499 11.0711 23.8863 11.4637 23.417 11.4639H18.6494C19.0705 12.0173 19.3713 12.6737 19.5049 13.3926H23.417C23.8864 13.3927 24.25 13.7862 24.25 14.25C24.25 14.7138 23.8864 15.1073 23.417 15.1074H19.5049C19.1204 17.1758 17.3687 18.7499 15.251 18.75H12.5791L19.3428 25.79C19.6635 26.1239 19.6635 26.6613 19.3428 26.9951C19.0166 27.3346 18.4834 27.3346 18.1572 26.9951L9.99219 18.4951C9.48641 17.9687 9.82405 17.0365 10.584 17.0361H15.251C16.431 17.036 17.4396 16.2313 17.7871 15.1074H10.584C10.1146 15.1072 9.75098 14.7137 9.75098 14.25C9.75098 13.7863 10.1146 13.3928 10.584 13.3926H17.7871C17.4396 12.2687 16.431 11.464 15.251 11.4639H10.584C10.1147 11.4636 9.75112 11.071 9.75098 10.6074C9.75098 10.1437 10.1146 9.75026 10.584 9.75H23.417Z" fill="white" stroke="white" stroke-width="0.5"/>
</svg>
