<svg width="49" height="49" viewBox="0 0 49 49" fill="none" xmlns="http://www.w3.org/2000/svg">
<circle cx="24.0159" cy="24.0159" r="24.0159" fill="#0E99FF"/>
<path d="M27.2567 20.5492L30.3171 14.0346L31.9218 18.4333L33.4252 17.897L30.6353 10.2493L22.9518 13.0182L23.4989 14.5178L27.909 12.9447L24.8485 19.4594C19.8956 17.8367 14.4081 20.1048 12.1606 24.889C9.7377 30.0464 12.017 36.2946 17.2458 38.7509C22.4745 41.2073 28.7229 39.0067 31.1776 33.7814C33.4252 28.9972 31.6676 23.3255 27.2567 20.5492ZM17.8834 37.3937C13.4065 35.2906 11.4554 29.9421 13.5435 25.4972C15.6316 21.0523 20.978 19.1735 25.4548 21.2767C29.9317 23.3798 31.8828 28.7283 29.7947 33.1732C27.7066 37.6181 22.3603 39.4969 17.8834 37.3937Z" fill="white"/>
</svg>
