<svg width="90" height="90" viewBox="0 0 90 90" fill="none" xmlns="http://www.w3.org/2000/svg">
<circle cx="45" cy="45" r="45" fill="#0E99FF"/>
<path d="M45.3016 73.0973C29.4834 73.0973 16.6016 60.2154 16.6016 44.3973C16.6016 28.5791 29.4834 15.6025 45.3016 15.6025C61.1197 15.6025 74.0016 28.4844 74.0016 44.3025C74.0016 60.1207 61.1197 73.0973 45.3016 73.0973ZM45.3016 19.3913C31.5672 19.3913 20.2956 30.6629 20.2956 44.3973C20.2956 58.1316 31.4725 69.3085 45.2068 69.3085C58.9412 69.3085 70.1181 58.1316 70.1181 44.3973C70.1181 30.6629 59.0359 19.3913 45.3016 19.3913Z" fill="white"/>
<circle cx="45.5869" cy="43.7344" r="26.0479" fill="white"/>
<path d="M45.7768 60.2154H45.3032C35.7365 60.2154 31.3794 53.1114 30.5269 49.4174C30.2428 48.3755 30.9058 47.3336 31.9477 47.1441C32.9896 46.86 34.0316 47.523 34.221 48.5649C34.3157 48.8491 36.3995 56.5214 45.3979 56.5214H45.8715C54.8698 56.5214 56.9537 48.9438 57.0484 48.5649C57.3325 47.523 58.3745 46.9547 59.3217 47.2388C60.3636 47.523 60.9319 48.4702 60.7424 49.5121C59.6058 53.2062 55.3434 60.2154 45.7768 60.2154Z" fill="#0E99FF"/>
<path d="M35.3542 42.124C37.1852 42.124 38.6694 40.6398 38.6694 38.8088C38.6694 36.9779 37.1852 35.4937 35.3542 35.4937C33.5233 35.4937 32.0391 36.9779 32.0391 38.8088C32.0391 40.6398 33.5233 42.124 35.3542 42.124Z" fill="#0E99FF"/>
<path d="M54.9597 42.124C56.7906 42.124 58.2749 40.6398 58.2749 38.8088C58.2749 36.9779 56.7906 35.4937 54.9597 35.4937C53.1288 35.4937 51.6445 36.9779 51.6445 38.8088C51.6445 40.6398 53.1288 42.124 54.9597 42.124Z" fill="#0E99FF"/>
</svg>
