<svg width="100" height="100" viewBox="0 0 100 100" fill="none" xmlns="http://www.w3.org/2000/svg">
<circle cx="50" cy="50" r="50" fill="#0E99FF"/>
<path d="M47.4738 40.5692C47.529 40.1764 47.4992 39.7764 47.3866 39.3962C47.274 39.0159 47.081 38.6643 46.8208 38.3649C46.5606 38.0656 46.2392 37.8257 45.8784 37.6612C45.5175 37.4967 45.1255 37.4116 44.7289 37.4116C44.3323 37.4116 43.9403 37.4967 43.5794 37.6612C43.2186 37.8257 42.8972 38.0656 42.637 38.3649C42.3768 38.6643 42.1838 39.0159 42.0712 39.3962C41.9585 39.7764 41.9288 40.1764 41.984 40.5692C41.984 40.8552 42.0976 41.1296 42.2999 41.3318C42.5022 41.5341 42.7765 41.6477 43.0625 41.6477C43.3486 41.6477 43.6229 41.5341 43.8252 41.3318C44.0275 41.1296 44.1411 40.8552 44.1411 40.5692C44.1439 40.407 44.2095 40.2522 44.3242 40.1375C44.4389 40.0228 44.5937 39.9572 44.7559 39.9544C44.917 39.9572 45.0706 40.0232 45.1836 40.1382C45.2966 40.2532 45.3599 40.408 45.3598 40.5692C45.4094 40.813 45.5416 41.0322 45.7343 41.1896C45.9269 41.3471 46.168 41.4331 46.4168 41.4331C46.6656 41.4331 46.9068 41.3471 47.0994 41.1896C47.292 41.0322 47.4243 40.813 47.4738 40.5692Z" fill="white"/>
<path d="M52.674 41.6482C52.96 41.6482 53.2343 41.5346 53.4366 41.3323C53.6389 41.1301 53.7525 40.8557 53.7525 40.5697C53.7525 40.4085 53.8158 40.2537 53.9287 40.1387C54.0417 40.0238 54.1953 39.9577 54.3565 39.9549C54.511 39.9683 54.6551 40.0386 54.7607 40.1522C54.8664 40.2658 54.926 40.4146 54.9281 40.5697C54.9281 40.8557 55.0418 41.1301 55.244 41.3323C55.4463 41.5346 55.7206 41.6482 56.0067 41.6482C56.2927 41.6482 56.5671 41.5346 56.7693 41.3323C56.9716 41.1301 57.0852 40.8557 57.0852 40.5697C57.1088 40.1919 57.0548 39.8132 56.9264 39.4571C56.7981 39.1009 56.5981 38.7748 56.3389 38.4989C56.0797 38.223 55.7667 38.0032 55.4193 37.8529C55.0719 37.7025 54.6973 37.625 54.3187 37.625C53.9402 37.625 53.5656 37.7025 53.2182 37.8529C52.8707 38.0032 52.5578 38.223 52.2986 38.4989C52.0394 38.7748 51.8394 39.1009 51.7111 39.4571C51.5827 39.8132 51.5287 40.1919 51.5523 40.5697C51.5522 40.715 51.5814 40.8589 51.6383 40.9926C51.6952 41.1264 51.7785 41.2473 51.8833 41.348C51.988 41.4487 52.1121 41.5273 52.248 41.5789C52.3838 41.6305 52.5287 41.654 52.674 41.6482Z" fill="white"/>
<path d="M52.3094 45.4987C52.3094 45.2127 52.1957 44.9383 51.9935 44.7361C51.7912 44.5338 51.5169 44.4202 51.2308 44.4202C50.9448 44.4202 50.6704 44.5338 50.4682 44.7361C50.2659 44.9383 50.1523 45.2127 50.1523 45.4987C50.1523 45.6618 50.0875 45.8181 49.9722 45.9334C49.8569 46.0487 49.7005 46.1135 49.5375 46.1135C49.3744 46.1135 49.2181 46.0487 49.1028 45.9334C48.9875 45.8181 48.9227 45.6618 48.9227 45.4987C48.9227 45.2127 48.8091 44.9383 48.6068 44.7361C48.4046 44.5338 48.1302 44.4202 47.8442 44.4202C47.5581 44.4202 47.2838 44.5338 47.0815 44.7361C46.8793 44.9383 46.7656 45.2127 46.7656 45.4987C46.7656 46.2339 47.0577 46.9389 47.5775 47.4587C48.0973 47.9785 48.8023 48.2706 49.5375 48.2706C50.2726 48.2706 50.9777 47.9785 51.4975 47.4587C52.0173 46.9389 52.3094 46.2339 52.3094 45.4987Z" fill="white"/>
<path d="M64.1281 55.3024H55.6938V51.9589C56.5278 51.5086 57.3061 50.962 58.0127 50.3303H66.242C67.1431 50.3303 68.0072 49.9724 68.6444 49.3352C69.2815 48.6981 69.6395 47.8339 69.6395 46.9329V39.1026C69.6458 36.4616 69.1287 33.8455 68.1179 31.4056C67.1071 28.9656 65.6227 26.7502 63.7506 24.8874C51.0237 12.1174 29.4096 21.5331 29.4312 39.5988V46.9329C29.4312 47.8339 29.7891 48.6981 30.4263 49.3352C31.0634 49.9724 31.9276 50.3303 32.8286 50.3303H41.0472C41.7583 50.9642 42.54 51.5143 43.3768 51.9697V55.3024H34.9426C31.51 55.3024 28.218 56.666 25.7908 59.0932C23.3636 61.5204 22 64.8124 22 68.245C22.0029 71.7739 23.406 75.1576 25.9014 77.6529C28.3967 80.1483 31.7803 81.5514 35.3093 81.5543H63.7614C81.0721 80.9287 81.6329 56.1113 64.1281 55.3024ZM63.1358 68.6764C63.1358 69.0826 62.9744 69.4721 62.6872 69.7594C62.4 70.0466 62.0105 70.2079 61.6043 70.2079C61.1981 70.2079 60.8085 70.0466 60.5213 69.7594C60.2341 69.4721 60.0727 69.0826 60.0727 68.6764C60.0727 68.2702 60.2341 67.8807 60.5213 67.5934C60.8085 67.3062 61.1981 67.1449 61.6043 67.1449C62.0105 67.1449 62.4 67.3062 62.6872 67.5934C62.9744 67.8807 63.1358 68.2702 63.1358 68.6764ZM44.8868 50.2764C43.2949 49.5584 41.9388 48.4046 40.9749 46.9483C40.0111 45.4921 39.479 43.7929 39.4401 42.0471V35.9641C40.9928 35.9417 42.5204 35.5681 43.9082 34.8714C45.296 34.1747 46.5082 33.1729 47.4537 31.9411C50.1177 34.3894 55.2624 35.7915 59.6521 35.9964C59.6521 36.568 59.6521 41.3891 59.6521 42.0902C59.8031 49.0253 51.1639 53.512 44.8868 50.2764ZM61.8092 38.0888H62.6612C62.9473 38.0888 63.2216 38.2024 63.4239 38.4047C63.6262 38.607 63.7398 38.8813 63.7398 39.1673V40.4185C63.7398 40.7045 63.6262 40.9788 63.4239 41.1811C63.2216 41.3834 62.9473 41.497 62.6612 41.497H61.8092V38.0888ZM31.6099 46.9329V39.5988C31.6099 23.4205 50.8727 15.0079 62.2406 26.4189C63.9143 28.0791 65.2414 30.0553 66.145 32.2326C67.0485 34.41 67.5104 36.7452 67.5039 39.1026V46.9329C67.5039 47.2618 67.3732 47.5773 67.1406 47.8099C66.908 48.0425 66.5926 48.1732 66.2636 48.1732H59.9002C60.8164 46.8399 61.4209 45.3175 61.669 43.7188H62.6612C63.5194 43.7188 64.3424 43.3779 64.9492 42.7711C65.556 42.1643 65.8969 41.3413 65.8969 40.4832V39.1997C65.8969 38.3415 65.556 37.5185 64.9492 36.9117C64.3424 36.3049 63.5194 35.9641 62.6612 35.9641H61.8092C61.8311 35.6625 61.8311 35.3597 61.8092 35.0581C61.8227 34.9085 61.8048 34.7577 61.7567 34.6155C61.7086 34.4732 61.6313 34.3425 61.5298 34.2319C61.4282 34.1212 61.3047 34.0329 61.1671 33.9728C61.0295 33.9126 60.8808 33.8818 60.7306 33.8825C55.7046 33.8825 50.4413 32.1676 48.5323 29.9889C48.9098 28.8025 50.1393 25.3835 48.144 25.2325C47.8579 25.2325 47.5836 25.3461 47.3813 25.5484C47.1791 25.7507 47.0654 26.025 47.0654 26.311C47.0797 27.4231 46.8592 28.5257 46.4183 29.5467V29.6222C45.1888 32.3078 42.3306 33.8825 38.3724 33.8825C38.0863 33.8825 37.812 33.9961 37.6097 34.1984C37.4074 34.4006 37.2938 34.675 37.2938 34.961V35.9641H36.4418C35.5836 35.9641 34.7606 36.3049 34.1538 36.9117C33.547 37.5185 33.2061 38.3415 33.2061 39.1997V40.4508C33.2061 41.309 33.547 42.132 34.1538 42.7388C34.7606 43.3456 35.5836 43.6865 36.4418 43.6865H37.434C37.6763 45.2849 38.2773 46.8078 39.1921 48.1409H32.8286C32.5052 48.141 32.1945 48.0147 31.9628 47.7891C31.7311 47.5634 31.5967 47.2562 31.5883 46.9329H31.6099ZM37.283 41.5401H36.431C36.1449 41.5401 35.8706 41.4265 35.6683 41.2242C35.4661 41.022 35.3524 40.7476 35.3524 40.4616V39.1997C35.3524 38.9136 35.4661 38.6393 35.6683 38.437C35.8706 38.2348 36.1449 38.1211 36.431 38.1211H37.283V41.5401ZM44.4769 57.4379C44.763 57.4379 45.0373 57.3243 45.2396 57.122C45.4419 56.9198 45.5555 56.6454 45.5555 56.3594V52.8865C48.1576 53.7224 50.9562 53.7224 53.5583 52.8865V56.3917C53.5583 56.6778 53.6719 56.9521 53.8742 57.1544C54.0765 57.3567 54.3508 57.4703 54.6369 57.4703H56.0066L53.3857 59.6274C52.3077 60.5069 50.959 60.9873 49.5677 60.9873C48.1764 60.9873 46.8277 60.5069 45.7496 59.6274L43.1287 57.4703L44.4769 57.4379ZM63.7614 79.3972H35.3093C22.5716 79.1707 19.8645 61.4501 32.1383 57.8262C32.2016 59.7602 32.7666 61.6446 33.7777 63.2944C32.5168 64.2152 31.6313 65.5607 31.2844 67.083C30.9376 68.6052 31.1527 70.2016 31.8903 71.5777L34.5004 76.0752C34.6496 76.31 34.8838 76.478 35.154 76.5442C35.4242 76.6104 35.7095 76.5696 35.9503 76.4304C36.1912 76.2912 36.3689 76.0643 36.4464 75.7971C36.5239 75.53 36.4952 75.2432 36.3663 74.9967L33.7562 70.4991C33.4911 69.9941 33.3288 69.4416 33.2787 68.8734C33.2285 68.3053 33.2915 67.7329 33.4641 67.1892C33.6366 66.6456 33.9152 66.1416 34.2837 65.7063C34.6523 65.271 35.1035 64.9132 35.6113 64.6534C36.579 64.0368 37.7506 63.8257 38.8727 64.0659C39.9949 64.3061 40.9774 64.9782 41.608 65.9369L44.2181 70.4344C44.2894 70.5571 44.3843 70.6645 44.4973 70.7505C44.6102 70.8364 44.739 70.8992 44.8763 70.9353C45.0136 70.9714 45.1566 70.98 45.2972 70.9607C45.4378 70.9414 45.5732 70.8945 45.6957 70.8227C45.9406 70.6786 46.1187 70.4438 46.1914 70.1691C46.2641 69.8945 46.2255 69.6022 46.084 69.3559L43.4739 64.8583C42.6784 63.5894 41.4675 62.6356 40.0474 62.1597C38.6274 61.6837 37.0863 61.715 35.6868 62.2483C34.7913 60.8189 34.3131 59.1677 34.3062 57.4811C34.5435 57.4811 39.3538 57.4811 39.699 57.4811C39.699 57.5781 44.2828 61.2236 44.3152 61.2991C45.7809 62.4921 47.6131 63.1434 49.503 63.1434C51.3929 63.1434 53.225 62.4921 54.6908 61.2991L59.2423 57.535L59.2962 57.4595H62.5318C63.1241 58.6559 63.4456 59.968 63.4735 61.3027C63.5015 62.6373 63.2352 63.9618 62.6936 65.1819C57.3009 63.7367 55.9527 72.0523 61.6151 72.365C62.2947 72.3513 62.9575 72.1505 63.5305 71.7847C64.1036 71.4189 64.5648 70.9023 64.8634 70.2916C65.1621 69.6809 65.2867 68.9997 65.2236 68.3228C65.1604 67.6459 64.912 66.9995 64.5056 66.4546C65.1802 65.0751 65.5655 63.5722 65.6379 62.0383C65.7102 60.5044 65.468 58.9719 64.9262 57.535C78.9473 59.1097 77.7178 78.9765 63.7614 79.3972Z" fill="white"/>
</svg>
