<svg width="49" height="49" viewBox="0 0 49 49" fill="none" xmlns="http://www.w3.org/2000/svg">
<circle cx="24.0159" cy="24.0159" r="24.0159" fill="#0E99FF"/>
<path d="M30.3722 19.354V11.3016H17.6579V19.354H11.3008V36.7302H22.3198V31.6445H21.0484V30.7969H26.9817V31.6445H25.7103V36.7302H36.7294V19.354H30.3722ZM15.9627 32.0683H13.4198V29.5254H15.9627V32.0683ZM15.9627 27.8302H13.4198V25.2873H15.9627V27.8302ZM15.9627 23.5921H13.4198V21.0493H15.9627V23.5921ZM21.0484 28.6778H19.3532V26.9826H21.0484V28.6778ZM21.0484 25.2873H19.3532V23.5921H21.0484V25.2873ZM21.0484 21.8969H19.3532V20.2016H21.0484V21.8969ZM26.9817 20.2016H28.677V21.8969H26.9817V20.2016ZM26.9817 23.5921H28.677V25.2873H26.9817V23.5921ZM24.8627 28.6778H23.1674V26.9826H24.8627V28.6778ZM24.8627 25.2873H23.1674V23.5921H24.8627V25.2873ZM24.8627 21.8969H23.1674V20.2016H24.8627V21.8969ZM26.5579 16.8112H24.8627V18.5064H23.1674V16.8112H21.4722V15.1159H23.1674V13.4207H24.8627V15.1159H26.5579V16.8112ZM26.9817 28.6778V26.9826H28.677V28.6778H26.9817ZM29.1008 35.035H28.2532V34.1874H29.1008V35.035ZM29.1008 33.3397H28.2532V32.4921H29.1008V33.3397ZM29.1008 31.6445H28.2532V30.7969H29.1008V31.6445ZM34.6103 32.0683H32.0674V29.5254H34.6103V32.0683ZM34.6103 27.8302H32.0674V25.2873H34.6103V27.8302ZM34.6103 23.5921H32.0674V21.0493H34.6103V23.5921Z" fill="white"/>
</svg>
