<svg width="124" height="124" viewBox="0 0 124 124" fill="none" xmlns="http://www.w3.org/2000/svg">
<rect width="124" height="124" rx="20" fill="#0E99FF"/>
<path d="M61.8062 25.0001C70.2332 25.0374 78.2873 28.3933 84.1787 34.2847C90.1074 40.2134 93.426 48.2302 93.389 56.5454V56.7318C93.165 68.0299 86.8261 78.4331 78.9212 86.5618C74.4467 91.1481 69.4874 95.2125 64.0808 98.6429C62.6266 99.8734 60.5012 99.8734 59.047 98.6429C51.0301 93.4227 43.9455 86.8601 38.2032 79.2161C33.1694 72.579 30.2983 64.5995 30 56.2843C30.0746 38.9457 44.3184 24.9629 61.8062 25.0001ZM61.8062 47.1116C56.2504 47.1116 51.7759 51.5488 51.7759 57.0674C51.7759 62.5151 56.1758 66.9113 61.6944 66.9859H61.8062C64.4536 66.9859 66.9892 65.9791 68.8536 64.152C70.7925 62.2503 71.8776 59.7185 71.8776 57.0674C71.8776 51.5488 67.3621 47.1116 61.8062 47.1116Z" fill="white"/>
</svg>
