<svg xmlns="http://www.w3.org/2000/svg" width="34" height="34" viewBox="0 0 34 34">
  <g id="Group_1" data-name="Group 1" transform="translate(-274 -247)">
    <rect id="Rectangle_1" data-name="Rectangle 1" width="34" height="34" transform="translate(274 247)" fill="#975252" opacity="0"/>
    <path id="location" d="M15.84,1.417a11.5,11.5,0,0,0-8.2,3.456A11.868,11.868,0,0,0,4.25,13.19a13.284,13.284,0,0,0,3.891,9.393l6.789,6.789a1.288,1.288,0,0,0,1.821,0l6.789-6.789a13.284,13.284,0,0,0,3.891-9.393,11.867,11.867,0,0,0-3.387-8.317A11.5,11.5,0,0,0,15.84,1.417ZM9.474,6.678a8.889,8.889,0,0,1,12.733,0,9.292,9.292,0,0,1,2.648,6.511,10.708,10.708,0,0,1-3.136,7.572L15.84,26.64,9.962,20.761A10.708,10.708,0,0,1,6.826,13.19,9.292,9.292,0,0,1,9.474,6.678Zm3.791,6.329a2.576,2.576,0,1,1,2.576,2.576A2.576,2.576,0,0,1,13.265,13.007ZM15.84,7.856a5.151,5.151,0,1,0,5.151,5.151A5.151,5.151,0,0,0,15.84,7.856Z" transform="translate(275.313 248.049)" fill="#151515" fill-rule="evenodd"/>
  </g>
</svg>
