<svg width="86" height="86" viewBox="0 0 86 86" fill="none" xmlns="http://www.w3.org/2000/svg">
<circle cx="43" cy="43" r="43" fill="#0E99FF"/>
<path d="M67.6917 24.5113C67.5739 24.2068 67.2844 24.0034 66.9583 23.9958L62.1747 23.8839L62.2829 19.0991C62.2904 18.773 62.0999 18.4738 61.8013 18.3425C61.5021 18.2107 61.1539 18.2715 60.9177 18.4975L55.2016 23.9576C55.0466 24.1051 54.9568 24.3085 54.9514 24.5221L54.8287 29.6309L53.413 31.0466C49.656 27.564 44.6324 25.4299 39.1186 25.4299C27.5104 25.4299 18.0664 34.8763 18.0664 46.487C18.0664 58.0934 27.5104 67.5361 39.1186 67.5361C50.7268 67.5361 60.1709 58.0934 60.1709 46.487C60.1709 40.9709 58.0368 35.9461 54.5543 32.188L55.7989 30.9433L61.2002 31.0692C61.2067 31.0692 61.2126 31.0692 61.2191 31.0692C61.4262 31.0692 61.6259 30.9896 61.776 30.8459L67.4964 25.3868C67.7332 25.1614 67.8101 24.8159 67.6917 24.5113ZM58.556 46.487C58.556 57.2034 49.8363 65.9218 39.1181 65.9218C28.3999 65.9218 19.6801 57.2034 19.6801 46.487C19.6801 35.7664 28.3999 27.0442 39.1181 27.0442C44.1874 27.0442 48.8075 28.997 52.2717 32.1874L49.2842 35.175C46.5873 32.7492 43.023 31.2694 39.1186 31.2694C30.7303 31.2694 23.9063 38.0958 23.9063 46.4865C23.9063 54.875 30.7303 61.6993 39.1186 61.6993C47.5096 61.6993 54.3353 54.875 54.3353 46.4865C54.3353 42.5799 52.8544 39.0133 50.4255 36.3158L53.4124 33.3287C56.6033 36.7941 58.556 41.4165 58.556 46.487ZM43.9781 46.4844C43.9781 49.1636 41.7983 51.3429 39.1192 51.3429C36.44 51.3429 34.2602 49.163 34.2602 46.4844C34.2602 43.8051 36.44 41.6253 39.1192 41.6253C40.1674 41.6253 41.1365 41.9621 41.9312 42.5287L38.5472 45.9129C38.2319 46.2282 38.2319 46.7389 38.5472 47.0542C38.7048 47.2119 38.9115 47.2904 39.1181 47.2904C39.3247 47.2904 39.5313 47.2119 39.689 47.0542L43.0731 43.6701C43.6402 44.4654 43.9781 45.435 43.9781 46.4844ZM43.0822 41.3772C41.9856 40.5243 40.6124 40.0109 39.1186 40.0109C35.5495 40.0109 32.6454 42.9151 32.6454 46.4844C32.6454 50.0536 35.5489 52.9572 39.1186 52.9572C42.6883 52.9572 45.5918 50.0536 45.5918 46.4844C45.5918 44.9895 45.0774 43.6152 44.2235 42.5185L49.2815 37.4598C51.4188 39.8635 52.7205 43.0254 52.7205 46.487C52.7205 53.9855 46.6185 60.0855 39.1181 60.0855C31.6198 60.0855 25.52 53.9855 25.52 46.487C25.52 38.9864 31.6198 32.8843 39.1181 32.8843C42.5775 32.8843 45.7371 34.1843 48.1402 36.319L43.0822 41.3772ZM60.9032 29.4479L57.376 29.3656L59.9336 26.808C60.2489 26.4926 60.2489 25.9814 59.9336 25.6666C59.6182 25.3513 59.1076 25.3513 58.7923 25.6666L56.4828 27.9762L56.5565 24.8955L59.1759 22.396L59.1765 22.3955L60.6245 21.0115L60.5421 24.6545C60.5319 25.1 60.8854 25.4692 61.3304 25.4794L64.9722 25.5644L60.9032 29.4479Z" fill="white"/>
</svg>
