<svg width="63" height="63" viewBox="0 0 63 63" fill="none" xmlns="http://www.w3.org/2000/svg">
<circle cx="31.5" cy="31.5" r="31.5" fill="#0E99FF"/>
<g clip-path="url(#clip0_11945_209)">
<path fill-rule="evenodd" clip-rule="evenodd" d="M34.7073 29.8138C33.8805 29.8138 33.1033 29.492 32.5186 28.9074C31.4675 27.8564 31.3226 26.2492 32.1022 25.0446L24.6307 17.5729C24.4115 17.3537 24.4115 16.9984 24.6307 16.7793L27.836 13.5738C27.9413 13.4686 28.084 13.4094 28.2329 13.4094C28.3817 13.4094 28.5243 13.4686 28.6296 13.5738L36.1017 21.0459C36.5972 20.727 37.1756 20.5553 37.7752 20.5553C38.602 20.5553 39.3792 20.8771 39.9638 21.4617C40.5484 22.0463 40.8705 22.8236 40.8705 23.6505C40.8705 24.4773 40.5485 25.2546 39.9638 25.8392C39.3861 26.417 38.6201 26.7381 37.8041 26.7456C37.7996 27.5483 37.4823 28.3207 36.8958 28.9073C36.3114 29.492 35.534 29.8138 34.7073 29.8138ZM25.8212 17.1761L33.2449 24.5999C33.4583 24.8132 33.4647 25.157 33.2596 25.3783C32.5358 26.159 32.559 27.3604 33.3121 28.1136C33.6848 28.4863 34.1803 28.6914 34.7072 28.6914C35.2341 28.6914 35.7296 28.4863 36.1023 28.1136C36.5948 27.6211 36.7894 26.9226 36.6227 26.2451C36.5758 26.0545 36.632 25.8532 36.7708 25.7144C36.9097 25.5755 37.1106 25.5194 37.3017 25.5662C37.4562 25.6041 37.6156 25.6235 37.7752 25.6235C38.3022 25.6235 38.7976 25.4183 39.1701 25.0458C39.5426 24.6731 39.7479 24.1776 39.7479 23.6508C39.7479 23.1237 39.5426 22.6284 39.1701 22.2557C38.7975 21.8831 38.3021 21.6778 37.7752 21.6778C37.2761 21.6778 36.8001 21.8644 36.435 22.203C36.2137 22.4082 35.87 22.4016 35.6565 22.1883L28.233 14.7643L25.8212 17.1761Z" fill="white"/>
<path fill-rule="evenodd" clip-rule="evenodd" d="M47.6607 52.2741C47.6372 52.2741 47.6132 52.2725 47.589 52.2696C47.2815 52.2303 47.0641 51.9494 47.1034 51.6418L49.0664 36.2461C49.2136 35.0933 49.2758 34.039 49.2562 33.022C49.2504 32.7121 49.4967 32.456 49.8066 32.4502C49.8031 32.4502 49.8102 32.4501 49.8066 32.4502C50.1116 32.4502 50.3726 32.6943 50.3784 33.0006C50.3989 34.0727 50.3339 35.1808 50.1798 36.3882L48.2168 51.7837C48.1807 52.0671 47.9392 52.2741 47.6607 52.2741ZM47.2088 25.1451C47.0262 25.1451 46.847 25.056 46.7392 24.8918C45.869 23.5658 44.7344 22.2094 43.2708 20.7449L35.2064 12.6805C34.9872 12.4612 34.9872 12.106 35.2064 11.8868C35.4255 11.6676 35.7808 11.6676 36 11.8868L44.0646 19.9514C45.583 21.4708 46.7649 22.8853 47.6775 24.2759C47.8477 24.535 47.7754 24.8829 47.5163 25.053C47.4213 25.1153 47.3145 25.1451 47.2088 25.1451Z" fill="white"/>
<path fill-rule="evenodd" clip-rule="evenodd" d="M32.2362 52.383C32.0349 52.383 31.8403 52.2742 31.7396 52.0839C29.0846 47.0624 29.1653 42.3172 29.7005 39.2209C30.1067 36.8705 30.8162 35.1111 31.2224 34.2368C23.383 31.5314 10.6651 18.775 10.1131 18.2184C9.89473 17.9984 9.89606 17.6431 10.1161 17.4248C10.3361 17.2065 10.6914 17.2078 10.9098 17.4279C11.0468 17.5659 24.6896 31.2513 32.1708 33.3589C32.3367 33.4056 32.4718 33.5259 32.5375 33.685C32.6032 33.8443 32.5921 34.0248 32.5074 34.1748C32.4961 34.195 31.3411 36.278 30.799 39.4554C30.302 42.3693 30.2338 46.8345 32.7319 51.5593C32.8768 51.8333 32.7722 52.1728 32.4981 52.3177C32.4144 52.3618 32.3246 52.383 32.2362 52.383Z" fill="white"/>
<path fill-rule="evenodd" clip-rule="evenodd" d="M42.9145 50.3146H38.3814C38.0715 50.3146 37.8202 50.0634 37.8202 49.7533L37.8203 39.187C36.4174 38.8864 35.3833 37.6475 35.3833 36.1612C35.3833 34.4545 36.7719 33.0659 38.4786 33.0659C39.3073 33.0659 40.0772 33.3873 40.648 33.9509C41.2187 33.3874 41.9887 33.0659 42.8174 33.0659C44.5242 33.0659 45.9127 34.4545 45.9127 36.1612C45.9127 37.6475 44.8786 38.8863 43.4757 39.187V49.7534C43.4757 50.0633 43.2244 50.3146 42.9145 50.3146ZM38.9425 49.1922H42.3533V38.6934C42.3533 38.3917 42.5918 38.144 42.8934 38.1326C43.957 38.0925 44.7904 37.2266 44.7904 36.1612C44.7904 35.0733 43.9053 34.1883 42.8173 34.1883C42.1208 34.1883 41.4893 34.5447 41.128 35.1416C41.0263 35.3094 40.8443 35.4121 40.648 35.4121C40.4515 35.4121 40.2695 35.3095 40.1678 35.1416C39.8065 34.5447 39.1751 34.1883 38.4786 34.1883C37.3907 34.1883 36.5056 35.0733 36.5056 36.1612C36.5056 37.2266 37.3388 38.0925 38.4025 38.1326C38.7041 38.144 38.9426 38.3917 38.9426 38.6934L38.9425 49.1922Z" fill="white"/>
<path fill-rule="evenodd" clip-rule="evenodd" d="M49.1352 33.6244C46.3675 33.6244 44.1157 31.3727 44.1157 28.605C44.1157 25.8372 46.3675 23.5854 49.1352 23.5854C51.903 23.5854 54.1547 25.8372 54.1547 28.605C54.1547 31.3726 51.9031 33.6244 49.1352 33.6244ZM49.1352 24.7079C46.9863 24.7079 45.2381 26.4561 45.2381 28.605C45.2381 30.7538 46.9863 32.502 49.1352 32.502C51.2841 32.502 53.0324 30.7537 53.0324 28.605C53.0324 26.4562 51.2841 24.7079 49.1352 24.7079Z" fill="white"/>
<path fill-rule="evenodd" clip-rule="evenodd" d="M49.44 31.7142H48.8311C48.2911 31.7142 47.8517 31.2748 47.8517 30.7348V29.8888H47.0057C46.4656 29.8888 46.0264 29.4495 46.0264 28.9095V28.3007C46.0264 27.7606 46.4657 27.3212 47.0057 27.3212H47.8517V26.4752C47.8517 25.9352 48.2911 25.4958 48.8311 25.4958H49.44C49.98 25.4958 50.4194 25.9352 50.4194 26.4752V27.3212H51.2654C51.8055 27.3212 52.2448 27.7607 52.2448 28.3007V28.9095C52.2448 29.4495 51.8054 29.8888 51.2654 29.8888H50.4194V30.7348C50.4193 31.2749 49.98 31.7142 49.44 31.7142ZM48.9741 30.5918H49.2969V29.3276C49.2969 29.0177 49.5482 28.7665 49.8581 28.7665H51.1224V28.4438L49.8581 28.4437C49.5482 28.4437 49.2969 28.1925 49.2969 27.8826V26.6183H48.9741V27.8826C48.9741 28.1925 48.7229 28.4438 48.4129 28.4438L47.1487 28.4437V28.7665H48.413C48.7229 28.7665 48.9741 29.0177 48.9741 29.3277L48.9741 30.5918Z" fill="white"/>
<path fill-rule="evenodd" clip-rule="evenodd" d="M40.7756 31.8523C39.5289 31.8523 38.5146 30.838 38.5146 29.5913C38.5146 28.3446 39.5289 27.3303 40.7756 27.3303C42.0223 27.3303 43.0365 28.3446 43.0365 29.5913C43.0365 30.838 42.0224 31.8523 40.7756 31.8523ZM40.7756 28.4527C40.1478 28.4527 39.637 28.9634 39.637 29.5913C39.637 30.2191 40.1478 30.7299 40.7756 30.7299C41.4033 30.7299 41.9142 30.2191 41.9142 29.5913C41.9142 28.9634 41.4034 28.4527 40.7756 28.4527Z" fill="white"/>
</g>
<defs>
<clipPath id="clip0_11945_209">
<rect width="44.2105" height="44.2105" fill="white" transform="translate(9.94727 9.94727)"/>
</clipPath>
</defs>
</svg>
