<svg width="63" height="63" viewBox="0 0 63 63" fill="none" xmlns="http://www.w3.org/2000/svg">
<circle cx="31.5" cy="31.5" r="31.5" fill="#0E99FF"/>
<path d="M52.8189 28.426C52.6453 26.2343 52.0171 24.1027 50.9743 22.1671C49.9316 20.2315 48.4972 18.5342 46.7624 17.1834C42.9327 14.5432 38.5807 14.4997 36.8689 18.8589C35.3457 23.871 35.7084 26.8375 40.4956 28.1069C40.6856 28.1745 40.8468 28.305 40.9525 28.4768C36.3539 31.0009 33.3801 35.585 32.0527 42.1347C30.7254 35.6068 27.7515 31.0009 23.1747 28.4768C23.2804 28.305 23.4416 28.1745 23.6317 28.1069C28.3971 26.8521 28.7598 23.871 27.2583 18.8589C25.5248 14.4852 21.1728 14.5432 17.3068 17.2124C15.5806 18.5613 14.1543 20.2551 13.1191 22.1858C12.0838 24.1165 11.4622 26.2417 11.2938 28.426C10.4815 33.5033 11.4679 37.8553 14.1589 40.9524C16.6395 43.7232 20.52 44.7604 22.7903 40.9524C24.6834 38.0004 24.8865 32.9738 23.2763 30.2031C28.1432 33.3438 30.856 39.306 31.3274 48.0534C31.336 48.1642 31.3699 48.2715 31.4265 48.367C31.483 48.4626 31.5608 48.5439 31.6538 48.6047C31.7928 48.6978 31.9597 48.74 32.1263 48.7241C32.2929 48.7083 32.4488 48.6353 32.5677 48.5176C32.6808 48.3862 32.7538 48.2251 32.7781 48.0534C33.2495 39.3495 35.9623 33.3438 40.8292 30.2248C39.219 32.9811 39.4293 38.0221 41.2862 40.9379C43.5782 44.7677 47.4442 43.7377 49.9466 40.9379C52.6376 37.8553 53.624 33.5033 52.8189 28.426ZM21.55 40.2344C20.0848 42.9326 17.1255 42.2073 15.2541 40.0313C12.8533 37.2823 11.9829 33.351 12.73 28.6291C13.2087 24.2771 15.0438 20.8318 18.1554 18.4165C21.2381 16.3856 24.4731 15.9213 25.8584 19.3449C26.9392 23.1601 27.2293 25.3869 23.9871 26.5257C23.8459 25.956 23.5233 25.4478 23.068 25.0775C22.6127 24.7073 22.0494 24.4951 21.4629 24.473C21.2706 24.473 21.0861 24.5494 20.9501 24.6854C20.814 24.8214 20.7376 25.0059 20.7376 25.1983C20.7376 25.3907 20.814 25.5752 20.9501 25.7112C21.0861 25.8472 21.2706 25.9236 21.4629 25.9236C21.7457 25.9451 22.0133 26.0602 22.2234 26.2506C22.4336 26.4411 22.5743 26.6961 22.6235 26.9754C22.3342 27.1759 22.0895 27.434 21.9048 27.7336C21.7201 28.0331 21.5993 28.3677 21.55 28.7162C21.4484 29.3189 21.5398 29.9383 21.8111 30.486C21.7531 32.205 20.5853 33.5759 19.1419 33.5759C18.9495 33.5759 18.765 33.6523 18.629 33.7883C18.493 33.9243 18.4166 34.1088 18.4166 34.3012C18.4166 34.4936 18.493 34.678 18.629 34.8141C18.765 34.9501 18.9495 35.0265 19.1419 35.0265C19.882 35.0112 20.6039 34.7936 21.2291 34.3972C21.8544 34.0009 22.3591 33.4409 22.6887 32.778C23.2027 35.3199 22.7992 37.9617 21.55 40.2344ZM48.8441 40.0313C46.9583 42.2073 44.0134 42.9326 42.5337 40.2199C41.2911 37.95 40.8953 35.3126 41.4167 32.778C41.7403 33.449 42.2425 34.0179 42.8682 34.4222C43.4939 34.8266 44.2189 35.0507 44.9636 35.07C45.156 35.07 45.3405 34.9936 45.4765 34.8576C45.6125 34.7216 45.6889 34.5371 45.6889 34.3447C45.6889 34.1523 45.6125 33.9678 45.4765 33.8318C45.3405 33.6958 45.156 33.6194 44.9636 33.6194C43.5129 33.6194 42.3524 32.2485 42.2944 30.5295C42.5657 29.9818 42.6571 29.3624 42.5555 28.7597C42.5138 28.403 42.3965 28.0594 42.2113 27.7517C42.0262 27.444 41.7776 27.1793 41.482 26.9754C41.5192 26.6855 41.6547 26.4172 41.866 26.2152C42.0772 26.0132 42.3513 25.8898 42.6425 25.8656C42.8349 25.8656 43.0194 25.7892 43.1554 25.6532C43.2915 25.5171 43.3679 25.3326 43.3679 25.1403C43.3679 24.9479 43.2915 24.7634 43.1554 24.6274C43.0194 24.4914 42.8349 24.415 42.6425 24.415C42.0561 24.437 41.4928 24.6492 41.0375 25.0195C40.5822 25.3897 40.2596 25.898 40.1184 26.4676C36.8762 25.3289 37.1663 23.1021 38.2471 19.2869C39.6179 15.8778 42.8674 16.3275 45.9138 18.3294C49.0617 20.7738 50.8968 24.2191 51.3755 28.6074C52.1226 33.322 51.2522 37.2533 48.8441 40.0313Z" fill="white"/>
</svg>
