<svg width="173" height="27" viewBox="0 0 173 27" fill="none" xmlns="http://www.w3.org/2000/svg">
<g clip-path="url(#clip0_12181_4)">
<path fill-rule="evenodd" clip-rule="evenodd" d="M14.0003 22.664L20.4558 26.6505C21.6381 27.3811 23.0847 26.3011 22.7736 24.9352L21.0625 17.4387L26.7714 12.3882C27.8136 11.467 27.2536 9.71992 25.8847 9.60874L18.3714 8.95756L15.4314 1.87403C14.9025 0.587562 13.0981 0.587562 12.5692 1.87403L9.62916 8.94168L2.11583 9.59286C0.746943 9.70403 0.186942 11.4511 1.22916 12.3723L6.93805 17.4229L5.22694 24.9193C4.91583 26.2852 6.3625 27.3652 7.54472 26.6346L14.0003 22.664Z" fill="#F66F4D"/>
</g>
<g clip-path="url(#clip1_12181_4)">
<path fill-rule="evenodd" clip-rule="evenodd" d="M49.5001 22.664L56.1862 26.6505C57.4106 27.3811 58.909 26.3011 58.5867 24.9352L56.8145 17.4387L62.7273 12.3882C63.8067 11.467 63.2267 9.71992 61.809 9.60874L54.0273 8.95756L50.9823 1.87403C50.4345 0.587562 48.5656 0.587562 48.0179 1.87403L44.9729 8.94168L37.1912 9.59286C35.7734 9.70403 35.1934 11.4511 36.2729 12.3723L42.1856 17.4229L40.4134 24.9193C40.0912 26.2852 41.5895 27.3652 42.814 26.6346L49.5001 22.664Z" fill="#F66F4D"/>
</g>
<g clip-path="url(#clip2_12181_4)">
<path fill-rule="evenodd" clip-rule="evenodd" d="M86.0003 22.664L92.4558 26.6505C93.6381 27.3811 95.0847 26.3011 94.7736 24.9352L93.0625 17.4387L98.7714 12.3882C99.8136 11.467 99.2536 9.71992 97.8847 9.60874L90.3714 8.95756L87.4314 1.87403C86.9025 0.587562 85.0981 0.587562 84.5692 1.87403L81.6292 8.94168L74.1158 9.59286C72.7469 9.70403 72.1869 11.4511 73.2292 12.3723L78.9381 17.4229L77.2269 24.9193C76.9158 26.2852 78.3625 27.3652 79.5447 26.6346L86.0003 22.664Z" fill="#F66F4D"/>
</g>
<g clip-path="url(#clip3_12181_4)">
<path fill-rule="evenodd" clip-rule="evenodd" d="M122 22.664L128.456 26.6505C129.638 27.3811 131.085 26.3011 130.774 24.9352L129.063 17.4387L134.771 12.3882C135.814 11.467 135.254 9.71992 133.885 9.60874L126.371 8.95756L123.431 1.87403C122.902 0.587562 121.098 0.587562 120.569 1.87403L117.629 8.94168L110.116 9.59286C108.747 9.70403 108.187 11.4511 109.229 12.3723L114.938 17.4229L113.227 24.9193C112.916 26.2852 114.362 27.3652 115.545 26.6346L122 22.664Z" fill="#F66F4D"/>
</g>
<g clip-path="url(#clip4_12181_4)">
<path fill-rule="evenodd" clip-rule="evenodd" d="M159 22.664L165.456 26.6505C166.638 27.3811 168.085 26.3011 167.774 24.9352L166.063 17.4387L171.771 12.3882C172.814 11.467 172.254 9.71992 170.885 9.60874L163.371 8.95756L160.431 1.87403C159.902 0.587562 158.098 0.587562 157.569 1.87403L154.629 8.94168L147.116 9.59286C145.747 9.70403 145.187 11.4511 146.229 12.3723L151.938 17.4229L150.227 24.9193C149.916 26.2852 151.362 27.3652 152.545 26.6346L159 22.664Z" fill="#F66F4D"/>
</g>
<defs>
<clipPath id="clip0_12181_4">
<rect width="28" height="27" fill="white"/>
</clipPath>
<clipPath id="clip1_12181_4">
<rect width="29" height="27" fill="white" transform="translate(35)"/>
</clipPath>
<clipPath id="clip2_12181_4">
<rect width="28" height="27" fill="white" transform="translate(72)"/>
</clipPath>
<clipPath id="clip3_12181_4">
<rect width="28" height="27" fill="white" transform="translate(108)"/>
</clipPath>
<clipPath id="clip4_12181_4">
<rect width="28" height="27" fill="white" transform="translate(145)"/>
</clipPath>
</defs>
</svg>
