<svg width="90" height="90" viewBox="0 0 90 90" fill="none" xmlns="http://www.w3.org/2000/svg">
<circle cx="45" cy="45" r="45" fill="#0E99FF"/>
<path d="M55.8404 40.5889C56.9025 38.1649 57.4879 35.559 57.5647 32.9135C57.5637 32.4127 57.533 31.9124 57.4726 31.4153C57.0998 28.2995 55.5742 25.4361 53.1961 23.3888C50.818 21.3414 47.7597 20.2584 44.6231 20.3529C41.4865 20.4473 38.4989 21.7125 36.2483 23.8992C33.9978 26.086 32.6473 29.036 32.4626 32.1686C32.4459 32.4114 32.4375 32.6624 32.4375 32.9135C32.4375 39.8524 38.0623 50.4992 45.0011 50.4992C47.6293 50.4992 50.0566 48.9842 52.0655 46.7159C50.6755 46.9846 49.2626 47.1163 47.847 47.1093H47.7716C46.9472 47.653 45.9881 47.9573 45.0011 47.9881C40.1464 47.9881 34.9485 39.1409 34.9485 32.9135C34.9485 32.7043 34.9569 32.495 34.9737 32.2858C39.6488 32.2893 44.2392 31.0376 48.2655 28.6615C50.3507 29.7378 52.5722 30.5262 54.8695 31.0051C54.9945 31.6335 55.0562 32.2728 55.0536 32.9135C55.0536 35.7343 53.9822 39.0907 52.3668 41.9198C53.5667 41.5947 54.7305 41.1488 55.8404 40.5889Z" fill="white"/>
<path d="M28.6674 33.9596C28.8048 33.9596 28.9408 33.9326 29.0678 33.88C29.1947 33.8274 29.31 33.7504 29.4072 33.6532C29.5044 33.5561 29.5814 33.4407 29.634 33.3138C29.6866 33.1868 29.7136 33.0508 29.7136 32.9134C29.7136 32.5966 29.7214 32.2872 29.7451 31.9628C29.9277 29.0121 30.9626 26.1778 32.7241 23.8036C34.4857 21.4294 36.8983 19.6173 39.6694 18.5872C42.4404 17.557 45.4508 17.353 48.3355 17.9999C51.2202 18.6468 53.8552 20.1168 55.921 22.2316C58.2654 24.6416 59.7578 27.7518 60.1711 31.0885C60.2421 31.6942 60.2789 32.3035 60.2814 32.9134C60.2771 33.9099 60.1897 34.9043 60.0202 35.8862L59.8567 36.854L60.8119 37.0792C61.3788 37.2133 61.8833 37.5358 62.2431 37.994C62.6029 38.4521 62.7966 39.0188 62.7924 39.6013C62.7928 40.2903 62.5198 40.9512 62.0335 41.4392C61.5471 41.9272 60.887 42.2024 60.198 42.2043C59.5277 42.2086 58.883 41.9468 58.4055 41.4764L57.8488 40.9271L57.1643 41.3052C53.9936 43.1098 50.3656 43.9513 46.7243 43.7266C46.526 43.3503 46.2108 43.0486 45.8262 42.8671C45.4416 42.6855 45.0084 42.6338 44.5919 42.7198C44.1753 42.8058 43.798 43.0249 43.5168 43.344C43.2356 43.6632 43.0658 44.065 43.0328 44.4891C42.9999 44.9131 43.1057 45.3364 43.3342 45.6951C43.5628 46.0538 43.9017 46.3285 44.3 46.4778C44.6982 46.6272 45.1342 46.643 45.5423 46.523C45.9503 46.4029 46.3083 46.1535 46.5623 45.8124C46.9935 45.8343 47.4209 45.8499 47.8402 45.8499C51.2223 45.8726 54.5572 45.0561 57.5464 43.4737C58.3251 44.0131 59.2507 44.3004 60.198 44.2968C61.2624 44.2947 62.2945 43.9311 63.1251 43.2656C63.9558 42.6001 64.5357 41.6722 64.7699 40.6339C65.0041 39.5956 64.8786 38.5085 64.414 37.5509C63.9495 36.5932 63.1733 35.8218 62.2129 35.3631C62.3183 34.5507 62.3721 33.7325 62.3739 32.9133C62.3713 32.2237 62.33 31.5348 62.2501 30.8498C61.7839 27.0507 60.0856 23.509 57.4152 20.7669C55.0669 18.3634 52.0719 16.6928 48.7932 15.9574C45.5145 15.222 42.0929 15.4535 38.9431 16.6238C35.7934 17.794 33.0507 19.8528 31.0475 22.5506C29.0444 25.2484 27.8668 28.4693 27.6575 31.823C27.6305 32.1834 27.6211 32.5443 27.6211 32.9134C27.6211 33.0508 27.6481 33.1868 27.7007 33.3138C27.7533 33.4407 27.8304 33.556 27.9275 33.6532C28.0247 33.7504 28.14 33.8274 28.267 33.88C28.3939 33.9326 28.53 33.9596 28.6674 33.9596Z" fill="white"/>
<path d="M68.7089 61.2609C67.993 58.6356 66.6779 57.1969 64.0553 56.3876C61.6664 55.5867 54.2962 52.9971 52.1645 52.1682C50.4642 55.3103 48.0011 57.9745 45.0018 59.9157C42.0025 57.9745 39.5394 55.3103 37.839 52.1682C35.7074 52.9971 28.3372 55.5867 25.9482 56.3876C23.3257 57.1969 22.0106 58.6356 21.2947 61.2609C20.4847 64.231 20.3398 67.399 20.3398 70.4628H69.6637C69.6637 67.399 69.5189 64.231 68.7089 61.2609ZM63.2919 65.1222H56.4739C56.1725 65.1222 55.8835 65.0025 55.6704 64.7894C55.4573 64.5763 55.3376 64.2873 55.3376 63.9859C55.3376 63.6845 55.4573 63.3955 55.6704 63.1824C55.8835 62.9693 56.1725 62.8496 56.4739 62.8496H63.2919C63.5933 62.8496 63.8823 62.9693 64.0954 63.1824C64.3085 63.3955 64.4282 63.6845 64.4282 63.9859C64.4282 64.2873 64.3085 64.5763 64.0954 64.7894C63.8823 65.0025 63.5933 65.1222 63.2919 65.1222Z" fill="white"/>
<path d="M39.0424 34.3782C38.7649 34.3782 38.4988 34.4884 38.3025 34.6846C38.1063 34.8808 37.9961 35.147 37.9961 35.4245C37.9961 35.7019 38.1063 35.9681 38.3025 36.1643C38.4988 36.3605 38.7649 36.4707 39.0424 36.4707H41.5841C41.8616 36.4707 42.1277 36.3605 42.3239 36.1643C42.5201 35.9681 42.6304 35.7019 42.6304 35.4245C42.6304 35.147 42.5201 34.8808 42.3239 34.6846C42.1277 34.4884 41.8616 34.3782 41.5841 34.3782H39.0424Z" fill="white"/>
<path d="M48.4135 34.3782C48.136 34.3782 47.8699 34.4884 47.6736 34.6846C47.4774 34.8808 47.3672 35.147 47.3672 35.4245C47.3672 35.7019 47.4774 35.9681 47.6736 36.1643C47.8699 36.3605 48.136 36.4707 48.4135 36.4707H50.9552C51.2326 36.4707 51.4988 36.3605 51.695 36.1643C51.8912 35.9681 52.0014 35.7019 52.0014 35.4245C52.0014 35.147 51.8912 34.8808 51.695 34.6846C51.4988 34.4884 51.2326 34.3782 50.9552 34.3782H48.4135Z" fill="white"/>
</svg>
