<svg xmlns="http://www.w3.org/2000/svg" width="100" height="100" viewBox="0 0 100 100">
  <g id="Group_5" data-name="Group 5" transform="translate(-364 -39)">
    <rect id="Rectangle_6" data-name="Rectangle 6" width="100" height="100" transform="translate(364 39)" fill="#822f2f" opacity="0"/>
    <g id="surgical-treatment" transform="translate(368 46)">
      <path id="Path_7" data-name="Path 7" d="M89.058,58.325a6.064,6.064,0,0,0,4.048-5.7V24.289a6.072,6.072,0,0,0-12.144,0v6.072H52.625a10.084,10.084,0,0,0-8.1,4.111V4.048A4.052,4.052,0,0,0,40.481,0h-8.1a4.052,4.052,0,0,0-4.048,4.048V8.1H27.324a3.04,3.04,0,0,0-3.036,3.036v7.084a4.052,4.052,0,0,0,4.048,4.048h4.048a4.052,4.052,0,0,0,4.048-4.048V11.132A3.04,3.04,0,0,0,33.4,8.1H32.385V4.048h8.1V36.433H30.36a10.132,10.132,0,0,0-10.12-10.12h-8.1V14.168A6.072,6.072,0,1,0,0,14.168V52.626a6.064,6.064,0,0,0,4.048,5.7V73.241a6.072,6.072,0,1,0,4.048,0V68.82H85.01v4.421a6.072,6.072,0,1,0,4.048,0ZM32.385,18.217H28.336V12.144h4.048ZM85.01,24.289a2.024,2.024,0,1,1,4.048,0V52.626a2.025,2.025,0,0,1-2.024,2.024H85.01ZM46.553,40.481a6.08,6.08,0,0,1,6.072-6.072H80.962V54.65H46.553Zm-4.048,0v6.072H12.144V40.481ZM20.24,30.361a6.08,6.08,0,0,1,6.072,6.072H12.144V30.361ZM4.048,14.168a2.024,2.024,0,1,1,4.048,0V48.578A2.022,2.022,0,0,0,10.12,50.6H42.5V54.65H6.072a2.025,2.025,0,0,1-2.024-2.024ZM6.072,80.962A2.024,2.024,0,1,1,8.1,78.938,2.025,2.025,0,0,1,6.072,80.962ZM8.1,64.77V58.7H85.01V64.77ZM87.034,80.962a2.024,2.024,0,1,1,2.024-2.024A2.025,2.025,0,0,1,87.034,80.962Z" fill="#fff"/>
      <rect id="Rectangle_7" data-name="Rectangle 7" width="81.815" height="7.67" transform="translate(5.646 57.846)" fill="#fff"/>
      <path id="Path_8" data-name="Path 8" d="M29,22.664l35.794-2.557v23.01H29Z" transform="translate(17.554 12.171)" fill="#fff"/>
      <path id="Path_9" data-name="Path 9" d="M23.32,20.757,6.7,16.922V27.149H24.6Z" transform="translate(4.056 10.243)" fill="#fff"/>
    </g>
  </g>
</svg>
