<svg width="100" height="100" viewBox="0 0 100 100" fill="none" xmlns="http://www.w3.org/2000/svg">
<circle cx="50" cy="50" r="50" fill="#0E99FF"/>
<g clip-path="url(#clip0_12105_461)">
<path fill-rule="evenodd" clip-rule="evenodd" d="M56.3012 48.0479C54.3656 48.0479 52.7909 46.5061 52.7909 44.6361V42.9958H51.2819C49.3463 42.9958 47.7716 41.4867 47.7716 39.6168C47.7716 37.6812 49.3135 36.1393 51.2819 36.1393H52.7909V34.499C52.7909 32.6291 54.3656 31.0872 56.3012 31.0872C58.1711 31.0872 59.6802 32.6291 59.6802 34.499V36.1393H61.3205C63.2233 36.1393 64.8308 37.7468 64.8308 39.6168C64.8308 41.4539 63.2233 42.9958 61.3205 42.9958H59.6802V44.6361C59.6802 46.5061 58.1711 48.0479 56.3012 48.0479ZM52.2989 76.6549C51.5771 76.6549 50.8554 76.5236 50.1337 76.294L39.0452 73.0462C39.078 73.4399 38.914 73.8335 38.5531 74.0304L32.2215 77.639C31.7294 77.8687 31.1389 77.7375 30.8765 77.2782L21.1331 60.5471C20.8706 60.0878 21.0346 59.4645 21.4939 59.202L27.8255 55.4949C28.8753 54.8716 29.4002 56.2495 29.7939 56.8728L30.6796 56.3807C33.0745 54.9372 35.9286 54.5764 38.7499 55.2981C41.8009 56.1182 45.672 57.7257 49.4447 59.3004C51.2491 60.055 52.955 60.7439 54.4641 61.3344C55.6451 61.7281 56.5965 62.7123 57.0229 63.9261L70.0141 56.9056C73.0979 55.1341 76.5754 57.0696 76.969 60.383C77.1659 62.2858 76.2801 63.9589 74.607 64.8775L55.9075 75.7035C54.6937 76.3268 53.4799 76.6549 52.2989 76.6549ZM37.7001 70.5857L50.6914 74.424C52.1348 74.8505 53.4799 74.7193 54.9562 73.9319L73.6556 63.1387C76.5426 61.5312 74.443 56.84 70.9655 58.6443L57.1542 66.0913C56.6949 67.83 55.8747 69.8968 53.5783 69.0766L42.3258 65.3696C41.112 64.9431 41.7353 63.0731 42.9491 63.4996C43.9989 63.8605 54.3984 67.3707 54.5625 67.2723C54.8905 67.0755 55.2842 65.5664 55.317 65.3039C55.3826 64.5822 54.5625 63.3356 53.7751 63.1716C52.2332 62.581 50.4945 61.8593 48.6902 61.1048C44.9831 59.5629 41.1776 57.9882 38.225 57.2008C35.9614 56.6103 33.6322 56.9056 31.6966 58.0538L30.7781 58.5787L37.7001 70.5857ZM23.3311 60.4158L32.0903 75.441L36.716 72.7837L27.9895 57.6929L23.3311 60.4158ZM56.3012 56.8728C56.0387 56.8728 55.8091 56.8072 55.6123 56.6103L39.3076 40.3385C32.4512 33.5476 37.6345 22.2295 46.7874 22.2295C49.6416 22.2295 52.2661 23.345 54.2672 25.3789L56.3012 27.3473L58.3352 25.3789C65.2901 18.4897 76.3457 23.7058 76.3457 32.8587C76.3457 35.68 75.2631 38.3373 73.2948 40.3385L56.9901 56.6103C56.7933 56.8072 56.5636 56.8728 56.3012 56.8728ZM46.7874 24.1979C39.5701 24.1979 34.9772 33.1868 40.7183 38.9278L56.3012 54.5107L71.8841 38.9278C77.3627 33.4492 73.262 24.1979 65.815 24.1979C59.3194 24.1979 57.4822 31.1528 55.6123 29.4141C52.7909 26.724 50.9538 24.1979 46.7874 24.1979ZM51.2819 38.1077C49.3135 38.1077 49.2151 41.0602 51.2819 41.0602C55.2186 41.0602 54.7593 40.601 54.7593 44.6361C54.7593 46.5061 57.7119 46.5389 57.7119 44.6361C57.7119 40.5682 57.2526 41.0602 61.3205 41.0602C62.1407 41.0602 62.8624 40.3713 62.8624 39.6168C62.8624 38.6982 62.0751 38.1077 61.3205 38.1077C57.2526 38.1077 57.7119 38.567 57.7119 34.499C57.7119 32.5963 54.7593 32.6291 54.7593 34.499C54.7593 38.5342 55.2186 38.1077 51.2819 38.1077Z" fill="white"/>
</g>
<defs>
<clipPath id="clip0_12105_461">
<rect width="56" height="56" fill="white" transform="translate(21 22)"/>
</clipPath>
</defs>
</svg>
