<svg width="86" height="86" viewBox="0 0 86 86" fill="none" xmlns="http://www.w3.org/2000/svg">
<circle cx="43" cy="43" r="43" fill="#0E99FF"/>
<path d="M43.5 60.2864C58.2679 60.2864 69.9544 44.5723 70.4438 43.9037L71 43.1433L70.4438 42.3829C69.9544 41.7143 58.2679 26.0001 43.5 26.0001C28.7321 26.0001 17.0456 41.7143 16.5562 42.3829L16 43.1433L16.5562 43.9037C17.0456 44.5723 28.7321 60.2864 43.5 60.2864ZM43.5 28.4491C55.3882 28.4491 65.5566 40.033 68.0716 43.1433C65.56 46.256 55.4051 57.8374 43.5 57.8374C31.6118 57.8374 21.4434 46.2535 18.9284 43.1433C21.44 40.0306 31.5948 28.4491 43.5 28.4491Z" fill="white"/>
<path d="M43.5004 54.1637C49.1227 54.1637 53.696 49.2192 53.696 43.1432C53.696 37.0671 49.1227 32.1226 43.5004 32.1226C37.878 32.1226 33.3047 37.0671 33.3047 43.1432C33.3047 49.2192 37.878 54.1637 43.5004 54.1637ZM43.5004 34.5716C47.872 34.5716 51.4303 38.4165 51.4303 43.1432C51.4303 47.8698 47.872 51.7147 43.5004 51.7147C39.1287 51.7147 35.5704 47.8698 35.5704 43.1432C35.5704 38.4165 39.1287 34.5716 43.5004 34.5716Z" fill="white"/>
</svg>
