<svg xmlns="http://www.w3.org/2000/svg" width="100" height="100" viewBox="0 0 100 100">
  <g id="Group_3" data-name="Group 3" transform="translate(-149 -39)">
    <rect id="Rectangle_3" data-name="Rectangle 3" width="100" height="100" transform="translate(149 39)" fill="#822f2f" opacity="0"/>
    <g id="attractions" transform="translate(157.319 46.297)">
      <path id="Path_4" data-name="Path 4" d="M82.269,47.4a2.713,2.713,0,0,0,0-3.756L70.2,31.2a2.518,2.518,0,0,0-3.641,0L40.867,57.71A10.494,10.494,0,0,1,33.443,60.9a8.631,8.631,0,0,1-6.263-2.6c-3.572-3.685-3.3-10.032.595-14.141.2-.2,8.766-9.046,15.966-16.474l9.706-10.013a2.713,2.713,0,0,0,0-3.756L41.382,1.468A2.535,2.535,0,0,0,39.559.69h0a2.546,2.546,0,0,0-1.823.784c-.108.114-4.5,4.644-9.7,10.01l-.291.3c-7.659,7.9-16.919,17.454-16.967,17.507C-2.13,42.909-2.761,64.168,9.368,76.681A29.721,29.721,0,0,0,30.917,85.7a34.27,34.27,0,0,0,24.27-10.364C55.344,75.185,82,47.683,82.269,47.4ZM39.564,7.106l8.423,8.69c-2.248,2.319-4.221,4.354-6.067,6.256L33.5,13.362C35.961,10.822,38.13,8.586,39.564,7.106ZM51.61,71.516a29.239,29.239,0,0,1-20.694,8.876,24.678,24.678,0,0,1-17.907-7.468C2.869,62.462,3.518,44.554,14.451,33.019c.185-.191,8.179-8.438,15.407-15.9l8.423,8.69c-14.1,14.545-14.176,14.628-14.176,14.628-5.869,6.19-6.121,15.889-.566,21.625a13.663,13.663,0,0,0,9.9,4.155A15.557,15.557,0,0,0,44.48,61.5L58.656,46.873l8.423,8.69C59.84,63.028,51.839,71.282,51.61,71.516Zm19.11-19.71L62.3,43.117l6.088-6.28,8.423,8.69C75.371,47.009,73.192,49.254,70.72,51.806Z" transform="translate(0 0)" fill="#fff"/>
      <path id="Path_5" data-name="Path 5" d="M28.066,8.59,38.313,19.975,24.65,33.638,21.235,45.024V55.271l12.524,3.416,23.91-19.356,9.108,9.108-9.108,15.94L26.927,78.042l-15.94-7.97L3.018,56.409,4.156,33.638Z" transform="translate(1.827 6.142)" fill="#fff"/>
    </g>
  </g>
</svg>
