<svg width="134" height="134" viewBox="0 0 134 134" fill="none" xmlns="http://www.w3.org/2000/svg">
<circle cx="67" cy="67" r="67" fill="#0E99FF"/>
<path d="M71.9861 41.7267L79.9114 28H54.0869L62.0122 41.7267H71.9861Z" fill="white"/>
<path d="M91.3413 39.2649L91.0105 38.6922L86.266 30.4751C85.8318 29.7224 85.207 29.0975 84.4544 28.6633H84.4542L83.3661 30.5476L76.9118 41.7267L69.4624 54.6298L77.3876 68.3569L91.4333 44.0286C91.8205 43.2911 92.0152 42.4678 91.9991 41.6349C91.983 40.8021 91.7567 39.9868 91.3413 39.2649Z" fill="white"/>
<path d="M43.6562 99.327L55.544 106.19L64.5381 90.6128L56.6131 76.8847L43.6562 99.327Z" fill="white"/>
<path d="M47.7338 30.475L42.9896 38.6921L42.6588 39.2648C42.2434 39.9868 42.0171 40.802 42.0009 41.6348C41.9848 42.4676 42.1793 43.291 42.5665 44.0285L78.4557 106.19L90.3434 99.3269L49.5456 28.6633C48.7929 29.0975 48.168 29.7224 47.7338 30.475Z" fill="white"/>
</svg>
