<svg xmlns="http://www.w3.org/2000/svg" xmlns:xlink="http://www.w3.org/1999/xlink" width="100" height="100" viewBox="0 0 100 100">
  <defs>
    <clipPath id="clip-path">
      <rect id="Rectangle_2" data-name="Rectangle 2" width="45" height="43.548" transform="translate(45 43.548) rotate(180)" fill="#fff"/>
    </clipPath>
  </defs>
  <g id="Group_2" data-name="Group 2" transform="translate(-43 -39)">
    <rect id="Rectangle_1" data-name="Rectangle 1" width="100" height="100" transform="translate(43 39)" fill="#822f2f" opacity="0"/>
    <g id="consultation" transform="translate(43 52.726)">
      <path id="Path_1" data-name="Path 1" d="M93.75,6.323A6.154,6.154,0,0,0,87.5.274h-75A6.154,6.154,0,0,0,6.25,6.323V60.758H0a12.3,12.3,0,0,0,12.5,12.1h75a12.3,12.3,0,0,0,12.5-12.1H93.75ZM87.5,60.758h-75V6.323h75Z" fill="#fff"/>
      <g id="Group_1" data-name="Group 1" transform="translate(28.334 10.758)" clip-path="url(#clip-path)">
        <path id="Path_2" data-name="Path 2" d="M37.376,28.968a11.023,11.023,0,0,1-7.955-3.19,10.323,10.323,0,0,1-3.3-7.7,10.324,10.324,0,0,1,3.3-7.7,11.026,11.026,0,0,1,7.955-3.189,11.024,11.024,0,0,1,7.954,3.189,10.323,10.323,0,0,1,3.3,7.7,10.322,10.322,0,0,1-3.3,7.7A11.025,11.025,0,0,1,37.376,28.968Z" transform="translate(-14.876 -7.194)" fill="#fff"/>
        <path id="Path_3" data-name="Path 3" d="M20.041,33.678a28.128,28.128,0,0,1,.41-3.09,23.407,23.407,0,0,1,.777-3.076,14.355,14.355,0,0,1,1.26-2.764,10,10,0,0,1,1.817-2.3,7.689,7.689,0,0,1,2.5-1.516,9.067,9.067,0,0,1,3.267-.567,3.631,3.631,0,0,1,1.23.61q.966.61,2.182,1.361a14.085,14.085,0,0,0,3.164,1.36,12.847,12.847,0,0,0,7.822,0,14.083,14.083,0,0,0,3.164-1.36q1.216-.752,2.182-1.361a3.632,3.632,0,0,1,1.23-.61,9.063,9.063,0,0,1,3.267.567,7.687,7.687,0,0,1,2.5,1.516,10.019,10.019,0,0,1,1.816,2.3,14.381,14.381,0,0,1,1.26,2.764,23.406,23.406,0,0,1,.777,3.076,28,28,0,0,1,.41,3.09q.1,1.433.1,2.935a6.947,6.947,0,0,1-2.139,5.373,8.06,8.06,0,0,1-5.684,1.97H27.76a8.06,8.06,0,0,1-5.684-1.97,6.944,6.944,0,0,1-2.139-5.373Q19.937,35.111,20.041,33.678Z" transform="translate(-18.063 -0.407)" fill="#fff"/>
      </g>
    </g>
  </g>
</svg>
