<svg width="34" height="34" viewBox="0 0 34 34" fill="none" xmlns="http://www.w3.org/2000/svg">
<circle cx="17" cy="17" r="17" fill="#0E99FF"/>
<g clip-path="url(#clip0_10066_937)">
<path d="M9.52734 8.38794C10.1303 9.01016 10.8522 9.50484 11.6501 9.84262C12.448 10.1804 13.3056 10.3544 14.1721 10.3542C15.0467 10.3548 15.9124 10.178 16.7168 9.83444" stroke="white" stroke-linecap="round" stroke-linejoin="round"/>
<path d="M12.8763 14.2502C15.0279 14.2502 16.7721 12.5059 16.7721 10.3543C16.7721 8.20272 15.0279 6.4585 12.8763 6.4585C10.7247 6.4585 8.98047 8.20272 8.98047 10.3543C8.98047 12.5059 10.7247 14.2502 12.8763 14.2502Z" stroke="white" stroke-linecap="round" stroke-linejoin="round"/>
<path d="M16.082 16.4839C15.1065 15.9207 13.9999 15.6242 12.8735 15.6243C11.7471 15.6243 10.6405 15.9209 9.66504 16.4841C8.68956 17.0474 7.87955 17.8575 7.31642 18.8331C6.75329 19.8087 6.4569 20.9153 6.45703 22.0417V22.9584H14.707" stroke="white" stroke-linecap="round" stroke-linejoin="round"/>
<path d="M26.6263 19.2915H17.4596C16.9534 19.2915 16.543 19.7019 16.543 20.2082V26.6248C16.543 27.1311 16.9534 27.5415 17.4596 27.5415H26.6263C27.1326 27.5415 27.543 27.1311 27.543 26.6248V20.2082C27.543 19.7019 27.1326 19.2915 26.6263 19.2915Z" stroke="white" stroke-linecap="round" stroke-linejoin="round"/>
<path d="M20.207 19.2918V18.3752C20.207 18.132 20.3036 17.8989 20.4755 17.727C20.6474 17.5551 20.8806 17.4585 21.1237 17.4585H22.957C23.2001 17.4585 23.4333 17.5551 23.6052 17.727C23.7771 17.8989 23.8737 18.132 23.8737 18.3752V19.2918" stroke="white" stroke-linecap="round" stroke-linejoin="round"/>
<path d="M12.875 15.625V22.9583" stroke="white" stroke-linecap="round" stroke-linejoin="round"/>
<path d="M16.082 16.4829V17.9166" stroke="white" stroke-linecap="round" stroke-linejoin="round"/>
<path d="M16.5404 17.9963C16.3932 17.9438 16.2382 17.9169 16.082 17.9165C15.7174 17.9165 15.3676 18.0614 15.1098 18.3192C14.8519 18.5771 14.707 18.9268 14.707 19.2915V21.1248" stroke="white" stroke-linecap="round" stroke-linejoin="round"/>
<path d="M17 20C17 19.7239 17.2239 19.5 17.5 19.5H26.5322C26.7955 19.5 27.0136 19.7041 27.0311 19.9667L27.4661 26.4915C27.4847 26.7708 27.2705 27.0109 26.991 27.0242L17.5238 27.4751C17.2386 27.4886 17 27.2611 17 26.9756V20Z" fill="white"/>
<path d="M6.70784 21.4869C7.13973 18.3428 9.8263 16 13 16V23H6.5L6.70784 21.4869Z" fill="white"/>
</g>
<path d="M24.3333 22.7292C24.3333 22.6684 24.3092 22.6101 24.2662 22.5671C24.2232 22.5241 24.1649 22.5 24.1042 22.5H22.9583V21.3542C22.9583 21.2934 22.9342 21.2351 22.8912 21.1921C22.8482 21.1491 22.7899 21.125 22.7292 21.125H21.3542C21.2934 21.125 21.2351 21.1491 21.1921 21.1921C21.1491 21.2351 21.125 21.2934 21.125 21.3542V22.5H19.9792C19.9184 22.5 19.8601 22.5241 19.8171 22.5671C19.7741 22.6101 19.75 22.6684 19.75 22.7292V24.1042C19.75 24.1649 19.7741 24.2232 19.8171 24.2662C19.8601 24.3092 19.9184 24.3333 19.9792 24.3333H21.125V25.4792C21.125 25.5399 21.1491 25.5982 21.1921 25.6412C21.2351 25.6842 21.2934 25.7083 21.3542 25.7083H22.7292C22.7899 25.7083 22.8482 25.6842 22.8912 25.6412C22.9342 25.5982 22.9583 25.5399 22.9583 25.4792V24.3333H24.1042C24.1649 24.3333 24.2232 24.3092 24.2662 24.2662C24.3092 24.2232 24.3333 24.1649 24.3333 24.1042V22.7292Z" stroke="#0E99FF" stroke-linecap="round" stroke-linejoin="round"/>
<path d="M10.125 16.2427V19.2915" stroke="#0E99FF" stroke-linecap="round" stroke-linejoin="round"/>
<path d="M10.1237 21.1248C10.63 21.1248 11.0404 20.7144 11.0404 20.2082C11.0404 19.7019 10.63 19.2915 10.1237 19.2915C9.61744 19.2915 9.20703 19.7019 9.20703 20.2082C9.20703 20.7144 9.61744 21.1248 10.1237 21.1248Z" stroke="#0E99FF" stroke-linecap="round" stroke-linejoin="round"/>
<defs>
<clipPath id="clip0_10066_937">
<rect width="22" height="22" fill="white" transform="translate(6 6)"/>
</clipPath>
</defs>
</svg>
