<svg width="94" height="94" viewBox="0 0 94 94" fill="none" xmlns="http://www.w3.org/2000/svg">
<circle cx="47" cy="47" r="47" fill="#0E99FF"/>
<path d="M75.1565 32.9988C69.2521 32.9988 64.4628 28.1028 64.4628 22.0669C64.4628 21.7161 64.4771 21.3508 64.5199 21H31.0376C31.0662 21.3508 31.0805 21.7015 31.0805 22.0669C31.0805 23.5868 30.7803 25.0483 30.2227 26.3636C28.5929 30.2804 24.7901 33.0134 20.3725 33.0134C19.9007 33.0134 19.4575 32.9841 19 32.9257C19.1859 38.1139 19.9865 43.0976 21.3446 47.789C22.9601 53.4303 25.3619 58.6331 28.3928 63.2222C33.3251 70.6904 39.9157 76.5509 47.5071 80C63.6336 72.6634 75.2423 54.4825 76 32.9695C75.7141 32.9841 75.4424 32.9988 75.1565 32.9988ZM66.5214 50.1419H47.5214V73.131C47.5214 73.131 47.5214 73.131 47.5071 73.131C42.0316 70.0912 37.1851 65.5167 33.3965 59.7585C31.4379 56.7917 29.7938 53.5618 28.4929 50.1419H47.5214V27.1528H59.1874C60.76 32.268 64.62 36.3602 69.538 38.1578C68.9804 42.3084 67.9654 46.3421 66.5214 50.1419Z" fill="white"/>
</svg>
