<svg width="94" height="94" viewBox="0 0 94 94" fill="none" xmlns="http://www.w3.org/2000/svg">
<circle cx="47" cy="47" r="47" fill="#0E99FF"/>
<path d="M52.9498 81H42.0783C42.0655 81 42.0531 80.9998 42.0403 80.9996H29.5796C28.6505 80.9996 27.8972 80.2682 27.8972 79.3662C27.8972 78.4641 28.6505 77.7328 29.5796 77.7328H40.396V70.5265C33.448 68.6992 27.4882 64.2254 23.9018 57.9343H19.6824C18.7533 57.9343 18 57.203 18 56.3009C18 55.3989 18.7533 54.6675 19.6824 54.6675H40.7076C41.6367 54.6675 42.39 55.3989 42.39 56.3009C42.39 57.203 41.6367 57.9343 40.7076 57.9343H40.3615C42.524 59.0881 44.9634 59.6997 47.5141 59.6997C55.1571 59.6997 61.474 54.0805 62.3125 46.8739H61.5958C60.6667 46.8739 59.9134 46.1425 59.9134 45.2405C59.9134 44.3384 60.6667 43.607 61.5958 43.607H62.3125C61.474 36.4006 55.1571 30.7815 47.5141 30.7815C46.1045 30.7815 44.715 30.9714 43.3765 31.3466L43.0129 32.9431L44.5331 33.2763C45.4397 33.475 46.0086 34.3493 45.804 35.2291C45.5993 36.1095 44.698 36.6616 43.7927 36.4629L42.2863 36.1329L41.206 40.875L42.6911 41.2004C43.5977 41.3991 44.1666 42.2734 43.962 43.1532C43.7573 44.0336 42.8564 44.5853 41.9507 44.387L38.8644 43.7108C38.8534 43.7085 38.8425 43.7063 38.8314 43.7038L28.2263 41.3803C28.2139 41.3776 28.2019 41.375 28.1897 41.3719L25.1068 40.6963C24.2002 40.4976 23.6313 39.6234 23.8359 38.7436C24.0406 37.8631 24.9425 37.3115 25.8472 37.5097L27.3187 37.8321L28.399 33.0899L26.9485 32.772C26.042 32.5733 25.4731 31.699 25.6777 30.8192C25.8823 29.939 26.7822 29.3867 27.689 29.5854L29.1257 29.9002L32.6838 14.2807C32.7805 13.8566 33.0471 13.4871 33.4248 13.2545C33.8027 13.0216 34.2606 12.9444 34.6969 13.0401L45.3016 15.3639C46.205 15.5619 46.7738 16.4317 46.5739 17.3099L46.1726 19.0717C46.6195 19.0505 47.0672 19.0397 47.5141 19.0397C61.8296 19.0397 73.5778 29.9178 74.4491 43.6073H75.3176C76.2467 43.6073 77 44.3386 77 45.2407C77 46.1427 76.2467 46.8741 75.3176 46.8741H74.4491C73.7276 58.2083 65.5498 67.6154 54.6324 70.5171V77.733H65.4492C66.3783 77.733 67.1316 78.4643 67.1316 79.3664C67.1316 80.2684 66.3783 80.9998 65.4492 80.9998H52.9881C52.9751 80.9998 52.9627 81 52.9498 81ZM43.7607 77.7328H51.2675V71.4417H43.7607V77.7328ZM27.8339 57.9343C32.1849 64.312 39.4965 68.1748 47.5139 68.1748C59.974 68.1748 70.2116 58.7613 71.0766 46.8739H65.6947C64.8428 55.8854 57.014 62.9665 47.5139 62.9665C42.6941 62.9665 38.1973 61.1848 34.771 57.9343H27.8339ZM65.6949 43.607H71.0768C70.2116 31.7201 59.974 22.3063 47.5139 22.3063C46.8138 22.3063 46.1114 22.3361 45.4153 22.3957L44.1821 27.8095C45.2759 27.6137 46.3901 27.5148 47.5141 27.5148C57.014 27.5146 64.843 34.5959 65.6949 43.607ZM30.6012 38.5514L37.9237 40.1556L39.004 35.4136L31.6815 33.8092L30.6012 38.5514ZM32.4078 30.6194L39.7304 32.2238L42.3746 20.6153C42.3824 20.5722 42.3923 20.5296 42.4037 20.4877L42.9265 18.1923L35.6041 16.5879L32.4078 30.6194Z" fill="white"/>
</svg>
