<svg width="134" height="134" viewBox="0 0 134 134" fill="none" xmlns="http://www.w3.org/2000/svg">
<circle cx="67" cy="67" r="67" fill="#0E99FF"/>
<path d="M55.7517 73.0018C55.7491 71.0237 55.018 69.1157 53.698 67.6423C52.378 66.1689 50.5616 65.2333 48.5956 65.014C48.471 65.5498 48.3318 66.0855 48.1777 66.6212C50.9232 68.2313 52.9217 70.8605 53.7382 73.9368C54.5547 77.013 54.123 80.2873 52.5373 83.0469V100.596C53.5769 100.226 54.7121 100.226 55.7517 100.596V73.0018Z" fill="white"/>
<path d="M43.5859 85.7349C45.772 85.364 47.7389 84.185 49.0965 82.4318C50.4541 80.6786 51.1032 78.4792 50.9151 76.2698C50.7269 74.0605 49.7154 72.0025 48.0809 70.504C46.4465 69.0056 44.3086 68.1761 42.0912 68.1802V64.9658C43.1362 64.9654 44.1768 65.1005 45.1871 65.3676C45.7993 63.1423 46.1095 60.8449 46.1092 58.5369C46.109 56.2835 45.8138 54.0398 45.2313 51.863C44.4631 52.0254 43.68 52.1075 42.8948 52.1081V48.8937C45.0261 48.8937 47.0701 48.0471 48.5772 46.54C50.0842 45.033 50.9308 42.989 50.9308 40.8577C50.9308 38.7264 50.0842 36.6824 48.5772 35.1754C47.0701 33.6683 45.0261 32.8217 42.8948 32.8217C39.783 32.8225 36.7541 33.8248 34.2561 35.6805C30.5205 38.4824 27.4704 42.0965 25.3361 46.2499C22.6802 51.4577 21.5737 57.318 22.1477 63.1358C22.7217 68.9535 24.9522 74.4846 28.5746 79.073C30.1437 81.04 32.1074 82.6565 34.3392 83.8184C36.571 84.9804 39.0215 85.6619 41.5327 85.8192C42.2181 85.8721 42.9072 85.8438 43.5859 85.7349Z" fill="white"/>
<path d="M54.1453 106.753C55.0329 106.753 55.7525 106.034 55.7525 105.146C55.7525 104.258 55.0329 103.539 54.1453 103.539C53.2577 103.539 52.5381 104.258 52.5381 105.146C52.5381 106.034 53.2577 106.753 54.1453 106.753Z" fill="white"/>
<path d="M75.0388 50.5009C74.1863 50.5009 73.3687 50.1623 72.7659 49.5594C72.163 48.9566 71.8244 48.139 71.8244 47.2865V28.0001H68.61V47.2865C68.61 48.139 68.2713 48.9566 67.6685 49.5594C67.0657 50.1623 66.2481 50.5009 65.3956 50.5009V36.0361H62.1811V50.5009H48.6826C48.544 50.5853 48.4034 50.6657 48.2607 50.744C48.5342 51.7219 48.7548 52.7138 48.9217 53.7153H62.1811V55.3225C62.1811 56.1751 61.8425 56.9927 61.2397 57.5955C60.6368 58.1983 59.8193 58.537 58.9667 58.537H49.3235C49.3231 59.6108 49.2641 60.6839 49.1467 61.7514H58.9667C60.096 61.7527 61.2054 61.4539 62.1811 60.8855V103.539H65.3956V60.8855C66.3713 61.4539 67.4807 61.7527 68.61 61.7514V95.5027H71.8244V61.7514H84.8588C84.7414 60.6839 84.6824 59.6108 84.682 58.537H71.8244V52.8495C72.8002 53.4179 73.9095 53.7167 75.0388 53.7153H85.0838C85.2507 52.7138 85.4713 51.7219 85.7448 50.744C85.6021 50.6657 85.4615 50.5853 85.3229 50.5009H75.0388ZM68.61 58.537C67.7575 58.537 66.9399 58.1983 66.337 57.5955C65.7342 56.9927 65.3956 56.1751 65.3956 55.3225V53.7153C66.5248 53.7167 67.6342 53.4179 68.61 52.8495V58.537Z" fill="white"/>
<path d="M108.667 46.2499C106.533 42.0967 103.484 38.4826 99.749 35.6805C97.251 33.8248 94.222 32.8225 91.1102 32.8217C88.9789 32.8217 86.9349 33.6683 85.4279 35.1754C83.9208 36.6824 83.0742 38.7264 83.0742 40.8577C83.0742 42.989 83.9208 45.033 85.4279 46.54C86.9349 48.0471 88.9789 48.8937 91.1102 48.8937V52.1081C90.325 52.1075 89.542 52.0254 88.7737 51.863C87.5883 56.2892 87.6036 60.9513 88.8179 65.3696C89.8281 65.1018 90.8688 64.9661 91.9138 64.9658V68.1802C89.6965 68.1761 87.5586 69.0056 85.9241 70.504C84.2897 72.0025 83.2781 74.0605 83.09 76.2698C82.9019 78.4792 83.551 80.6786 84.9085 82.4318C86.2661 84.185 88.233 85.364 90.4191 85.7349C91.0978 85.8438 91.787 85.8721 92.4723 85.8192C94.9836 85.6619 97.434 84.9804 99.6658 83.8184C101.898 82.6565 103.861 81.04 105.43 79.073C109.053 74.4844 111.283 68.9532 111.856 63.1355C112.43 57.3177 111.323 51.4575 108.667 46.2499Z" fill="white"/>
<path d="M79.8601 106.753C80.7478 106.753 81.4673 106.034 81.4673 105.146C81.4673 104.258 80.7478 103.539 79.8601 103.539C78.9725 103.539 78.2529 104.258 78.2529 105.146C78.2529 106.034 78.9725 106.753 79.8601 106.753Z" fill="white"/>
<path d="M85.8269 66.6212C85.6729 66.0855 85.5336 65.5498 85.409 65.014C83.443 65.2333 81.6266 66.1689 80.3066 67.6423C78.9867 69.1157 78.2556 71.0237 78.2529 73.0018V100.602C79.2925 100.232 80.4277 100.232 81.4673 100.602V83.0469C79.8797 80.2867 79.447 77.011 80.2636 73.9333C81.0801 70.8556 83.0798 68.2253 85.8269 66.6152V66.6212Z" fill="white"/>
</svg>
