<svg width="63" height="63" viewBox="0 0 63 63" fill="none" xmlns="http://www.w3.org/2000/svg">
<circle cx="31.5" cy="31.5" r="31.5" fill="#0E99FF"/>
<path d="M51.8574 41.3643C51.7077 40.9839 51.4838 40.6372 51.1986 40.3445C50.9135 40.0517 50.5728 39.8188 50.1965 39.6593C49.8202 39.4998 49.4159 39.4169 49.0072 39.4155C48.5985 39.414 48.1936 39.4942 47.8162 39.6511L39.0225 42.7666C39.0526 42.5908 39.0688 42.413 39.0708 42.2347C39.0708 41.4506 38.7594 40.6985 38.2049 40.1441C37.6504 39.5896 36.8984 39.2781 36.1143 39.2781H33.8347C31.8074 39.2763 29.811 38.7808 28.0182 37.8343C26.028 36.7819 23.8107 36.2317 21.5593 36.2317H18.1054V35.3199C18.1054 34.7281 17.8703 34.1606 17.4519 33.7421C17.0334 33.3237 16.4659 33.0886 15.8741 33.0886H14.2439C13.6533 33.0904 13.0876 33.3263 12.6706 33.7446C12.2537 34.1628 12.0195 34.7293 12.0195 35.3199V49.1702C12.0214 49.7596 12.2563 50.3243 12.673 50.7411C13.0898 51.1578 13.6545 51.3927 14.2439 51.3945H15.8741C16.1671 51.3945 16.4573 51.3369 16.728 51.2247C16.9987 51.1126 17.2447 50.9482 17.4519 50.7411C17.6591 50.5338 17.8234 50.2879 17.9355 50.0172C18.0477 49.7465 18.1054 49.4563 18.1054 49.1633C19.3454 49.2202 20.5712 49.4528 21.7458 49.8541L25.2965 51.1113C27.1165 51.7515 29.0317 52.0785 30.961 52.0784H31.6518C33.7199 51.9848 35.7538 51.5167 37.6547 50.6968L50.386 45.2603C51.0732 44.9116 51.6051 44.3186 51.8773 43.5977C52.1496 42.8768 52.1424 42.0801 51.8574 41.3643ZM16.7238 49.1702C16.722 49.3944 16.6317 49.6087 16.4725 49.7666C16.3134 49.9244 16.0983 50.013 15.8741 50.013H14.2439C14.0209 50.0112 13.8076 49.9218 13.6499 49.7641C13.4923 49.6065 13.4029 49.3932 13.4011 49.1702V35.3199C13.4011 35.0957 13.4897 34.8807 13.6475 34.7215C13.8054 34.5624 14.0197 34.472 14.2439 34.4702H15.8741C16.0995 34.4702 16.3156 34.5597 16.4749 34.7191C16.6343 34.8784 16.7238 35.0945 16.7238 35.3199V49.1702ZM49.8264 44.0238L37.1366 49.4396C35.3874 50.1936 33.5138 50.6175 31.6103 50.6899C29.6151 50.773 27.6224 50.4753 25.7386 49.8126L22.2018 48.5623C20.8823 48.0994 19.5022 47.8318 18.1054 47.7679V37.6133H21.5593C23.5849 37.6109 25.5801 38.1067 27.3689 39.057C29.3623 40.1077 31.5813 40.6577 33.8347 40.6597H36.1143C36.3217 40.6597 36.5271 40.7006 36.7186 40.7802C36.9101 40.8598 37.0841 40.9765 37.2304 41.1234C37.3768 41.2704 37.4926 41.4448 37.5714 41.6367C37.6501 41.8286 37.6902 42.0341 37.6893 42.2416C37.6904 42.4664 37.6422 42.6888 37.5479 42.8929C37.4536 43.0971 37.3155 43.278 37.1435 43.4228L35.983 43.8304H28.4465C28.2633 43.8304 28.0876 43.9032 27.958 44.0327C27.8285 44.1623 27.7557 44.338 27.7557 44.5212C27.7557 44.7044 27.8285 44.8801 27.958 45.0096C28.0876 45.1392 28.2633 45.212 28.4465 45.212H36.1143C36.211 45.212 48.3205 40.9567 48.3205 40.9567C48.5291 40.8655 48.754 40.817 48.9817 40.8143C49.2094 40.8117 49.4353 40.8548 49.646 40.9412C49.8567 41.0275 50.0479 41.1553 50.2082 41.317C50.3686 41.4787 50.4948 41.6709 50.5794 41.8824C50.7383 42.2696 50.7495 42.7016 50.6107 43.0965C50.4718 43.4913 50.1928 43.8214 49.8264 44.0238Z" fill="white"/>
<path d="M23.1551 26.5676H26.2775C26.4365 26.5663 26.5902 26.5102 26.7127 26.4087L27.7005 25.6005L38.3456 36.2456C38.4096 36.3108 38.4859 36.3628 38.57 36.3984C38.6542 36.4339 38.7447 36.4525 38.8361 36.4528C38.9275 36.4525 39.0179 36.4339 39.1021 36.3984C39.1862 36.3628 39.2626 36.3108 39.3265 36.2456L50.1443 25.4278C50.7598 24.8166 51.2483 24.0896 51.5817 23.2887C51.915 22.4879 52.0866 21.629 52.0866 20.7615C52.0866 19.8941 51.915 19.0352 51.5817 18.2343C51.2483 17.4335 50.7598 16.7065 50.1443 16.0952C49.5378 15.4783 48.814 14.9888 48.0157 14.6554C47.2173 14.3221 46.3604 14.1517 45.4953 14.1541C44.6251 14.1524 43.7632 14.3231 42.9594 14.6563C42.1555 14.9894 41.4256 15.4785 40.8117 16.0952L38.8361 18.0709L36.888 16.0952C35.7328 14.8733 34.1544 14.1387 32.4757 14.0416C30.7969 13.9444 29.1444 14.4919 27.8558 15.5724C26.5672 16.6528 25.7399 18.1845 25.5428 19.8545C25.3458 21.5245 25.7939 23.2068 26.7956 24.5574L26.0288 25.186H23.1551C22.9719 25.186 22.7962 25.2588 22.6667 25.3884C22.5372 25.5179 22.4644 25.6936 22.4644 25.8768C22.4644 26.06 22.5372 26.2357 22.6667 26.3653C22.7962 26.4949 22.9719 26.5676 23.1551 26.5676ZM26.9683 20.7442C26.9693 19.7122 27.2765 18.7037 27.8509 17.8463C28.4253 16.9889 29.2413 16.3212 30.1953 15.9277C31.1494 15.5343 32.1988 15.4327 33.2106 15.6359C34.2225 15.8391 35.1513 16.3379 35.8795 17.0692L38.3456 19.5354C38.4098 19.6001 38.4862 19.6515 38.5704 19.6866C38.6546 19.7217 38.7449 19.7397 38.8361 19.7397C38.9272 19.7397 39.0175 19.7217 39.1017 19.6866C39.1859 19.6515 39.2623 19.6001 39.3265 19.5354L41.7926 17.0692C42.2767 16.582 42.8526 16.1956 43.4869 15.9324C44.1213 15.6691 44.8016 15.5343 45.4884 15.5357C46.1721 15.5344 46.8492 15.6693 47.4802 15.9326C48.1112 16.1959 48.6834 16.5823 49.1634 17.0692C49.6496 17.5527 50.0355 18.1274 50.2988 18.7605C50.5621 19.3935 50.6976 20.0725 50.6976 20.7581C50.6976 21.4437 50.5621 22.1226 50.2988 22.7556C50.0355 23.3887 49.6496 23.9635 49.1634 24.4469L38.8015 34.8087L28.7713 24.7232L31.2028 22.7337L34.2216 27.8179C34.278 27.9133 34.3564 27.9936 34.4503 28.0522C34.5443 28.1109 34.6509 28.1461 34.7613 28.155C34.8717 28.1637 34.9826 28.1458 35.0846 28.1029C35.1866 28.0598 35.2768 27.9929 35.3476 27.9077L39.1607 23.3002H44.5282C44.7114 23.3002 44.8871 23.2274 45.0166 23.0978C45.1462 22.9683 45.219 22.7926 45.219 22.6094C45.219 22.4262 45.1462 22.2504 45.0166 22.1209C44.8871 21.9914 44.7114 21.9186 44.5282 21.9186H38.8361C38.7346 21.9185 38.6343 21.9406 38.5423 21.9836C38.4505 22.0266 38.3691 22.0893 38.3042 22.1673L34.9124 26.2706L31.9765 21.3383C31.9261 21.2528 31.8578 21.1792 31.7764 21.1224C31.695 21.0656 31.6023 21.0271 31.5046 21.0094C31.4069 20.9917 31.3066 20.9953 31.2104 21.0198C31.1142 21.0444 31.0245 21.0894 30.9472 21.1518L27.8663 23.6801C27.2772 22.8147 26.9642 21.7911 26.9683 20.7442Z" fill="white"/>
</svg>
