<svg width="63" height="63" viewBox="0 0 63 63" fill="none" xmlns="http://www.w3.org/2000/svg">
<circle cx="31.5" cy="31.5" r="31.5" fill="#0E99FF"/>
<g clip-path="url(#clip0_11945_185)">
<path fill-rule="evenodd" clip-rule="evenodd" d="M10.674 48.2576C10.4134 48.2576 10.18 48.0751 10.1252 47.81C9.63355 45.43 10.3024 43.4126 10.8925 41.6326C11.2452 40.5682 11.5501 39.6489 11.5501 38.8276V35.866C11.5501 32.1368 12.905 29.3485 15.6925 27.3419C15.944 27.1609 16.2946 27.218 16.4756 27.4695C16.6567 27.721 16.5996 28.0717 16.3481 28.2527C13.8402 30.0581 12.6721 32.4772 12.6721 35.8661V38.8277C12.6721 39.8302 12.3251 40.8772 11.9575 41.9858C11.4119 43.6319 10.7933 45.4978 11.2241 47.583C11.2867 47.8865 11.0916 48.1833 10.7881 48.246C10.7499 48.2537 10.7116 48.2576 10.674 48.2576ZM25.2447 24.6762C25.0145 24.6762 24.7988 24.5337 24.7166 24.3048C24.6119 24.0131 24.7634 23.6917 25.055 23.5871C26.1597 23.1902 26.5938 22.6533 26.6033 21.6721L26.6511 16.4033C26.6539 16.0935 26.906 15.8478 27.2172 15.8474C27.5271 15.8503 27.776 16.1037 27.7732 16.4135L27.7253 21.6827C27.7069 23.6053 26.409 24.2932 25.4343 24.6432C25.3717 24.6655 25.3076 24.6762 25.2447 24.6762Z" fill="white"/>
<path fill-rule="evenodd" clip-rule="evenodd" d="M53.4307 48.2574C53.393 48.2574 53.3548 48.2535 53.3166 48.2457C53.0131 48.1829 52.818 47.8862 52.8806 47.5827C53.3114 45.4974 52.6928 43.6317 52.1473 41.9855C51.7797 40.8769 51.4327 39.8298 51.4327 38.8274V35.8659C51.4327 29.5256 47.4 27.1361 40.4345 25.1513C40.2546 25.1 40.0713 25.0516 39.8878 25.0028C38.3349 24.5913 36.4025 24.079 36.3794 21.6827L36.3316 16.4133C36.3288 16.1034 36.5778 15.85 36.8875 15.8472C36.8858 15.8472 36.8892 15.8472 36.8875 15.8472C37.195 15.8472 37.4509 16.095 37.4536 16.4031L37.5015 21.6723C37.5156 23.1392 38.5267 23.4814 40.1753 23.9182C40.3657 23.9688 40.5557 24.0192 40.7421 24.0723C43.6946 24.9136 46.7357 25.9442 48.9753 27.7725C51.3841 29.7386 52.5549 32.3861 52.5549 35.866V38.8275C52.5549 39.6489 52.8596 40.5681 53.2125 41.6326C53.8025 43.4125 54.4713 45.43 53.9797 47.8098C53.9248 48.0749 53.6912 48.2574 53.4307 48.2574Z" fill="white"/>
<path fill-rule="evenodd" clip-rule="evenodd" d="M53.4301 48.2573H48.3884C48.0786 48.2573 47.8274 48.0061 47.8274 47.6963C47.8274 47.3863 48.0786 47.1353 48.3884 47.1353H53.4301C53.74 47.1353 53.9912 47.3863 53.9912 47.6963C53.9912 48.0061 53.74 48.2573 53.4301 48.2573ZM45.363 48.2573H18.7417C18.4319 48.2573 18.1807 48.0061 18.1807 47.6963C18.1807 47.3863 18.4319 47.1353 18.7417 47.1353H45.363C45.6729 47.1353 45.924 47.3863 45.924 47.6963C45.924 48.0061 45.6729 48.2573 45.363 48.2573ZM15.7163 48.2573H10.6748C10.365 48.2573 10.1138 48.0061 10.1138 47.6963C10.1138 47.3863 10.365 47.1353 10.6748 47.1353H15.7163C16.0262 47.1353 16.2774 47.3863 16.2774 47.6963C16.2774 48.0061 16.0262 48.2573 15.7163 48.2573Z" fill="white"/>
<path fill-rule="evenodd" clip-rule="evenodd" d="M15.7169 48.2575C15.5138 48.2575 15.3178 48.147 15.2181 47.9541C15.0766 47.6804 15.1822 47.3442 15.454 47.2004C15.5043 47.1723 18.0882 45.672 18.1809 39.8716C18.1859 39.5651 18.4358 39.3196 18.7418 39.3196C18.7403 39.3196 18.7435 39.3196 18.7418 39.3196C19.05 39.322 19.303 39.5726 19.303 39.8806V47.6964C19.303 48.0063 19.0518 48.2575 18.7419 48.2575C18.4321 48.2575 18.1809 48.0063 18.1809 47.6964V45.5088C17.2457 47.5094 16.0548 48.1531 15.9743 48.1947C15.8919 48.2373 15.8037 48.2575 15.7169 48.2575Z" fill="white"/>
<path fill-rule="evenodd" clip-rule="evenodd" d="M48.3894 48.2577C48.3019 48.2577 48.2132 48.2374 48.1304 48.1946C48.0498 48.1531 46.859 47.5092 45.9238 45.5086V47.6964C45.9238 48.0062 45.6726 48.2574 45.3628 48.2574C45.0528 48.2574 44.8018 48.0062 44.8018 47.6964V39.8806C44.8018 39.5725 45.0502 39.3219 45.3583 39.3196C45.3568 39.3196 45.3598 39.3196 45.3583 39.3196C45.6644 39.3196 45.9188 39.5651 45.9237 39.8716C46.017 45.6995 48.6249 47.1864 48.6511 47.2007C48.9264 47.3431 49.0316 47.6803 48.8892 47.9554C48.7896 48.1479 48.5929 48.2577 48.3894 48.2577Z" fill="white"/>
<path fill-rule="evenodd" clip-rule="evenodd" d="M20.4797 29.0592C18.5577 29.0592 16.9941 27.4956 16.9941 25.5736C16.9941 23.6517 18.5578 22.0881 20.4797 22.0881C22.4017 22.0881 23.9654 23.6517 23.9654 25.5736C23.9655 27.4956 22.4017 29.0592 20.4797 29.0592ZM20.4797 23.2101C19.1765 23.2101 18.1162 24.2705 18.1162 25.5735C18.1162 26.8768 19.1765 27.9372 20.4797 27.9372C21.783 27.9372 22.8434 26.8768 22.8434 25.5735C22.8434 24.2705 21.783 23.2101 20.4797 23.2101Z" fill="white"/>
<path fill-rule="evenodd" clip-rule="evenodd" d="M20.4793 31.1169C17.4228 31.1169 14.936 28.6301 14.936 25.5736C14.936 22.517 17.4228 20.0303 20.4793 20.0303C23.5359 20.0303 26.0226 22.517 26.0226 25.5736C26.0226 28.6301 23.5359 31.1169 20.4793 31.1169ZM20.4793 21.1523C18.0414 21.1523 16.0582 23.1358 16.0582 25.5737C16.0582 28.0115 18.0414 29.9948 20.4793 29.9948C22.9172 29.9948 24.9006 28.0115 24.9006 25.5737C24.9006 23.1357 22.9172 21.1523 20.4793 21.1523Z" fill="white"/>
<path fill-rule="evenodd" clip-rule="evenodd" d="M32.0521 48.2574C31.9754 48.2574 31.8975 48.2416 31.823 48.2083C31.5401 48.0816 31.4137 47.7496 31.5404 47.4668C31.5589 47.4254 32.8201 44.5668 33.4434 40.4905C34.0159 36.7455 34.152 31.1708 31.549 25.8791C31.4121 25.6011 31.5267 25.2649 31.8047 25.128C32.0828 24.9913 32.4191 25.1058 32.5558 25.3838C35.2933 30.9488 35.1498 36.7811 34.5473 40.694C33.8965 44.9214 32.6185 47.805 32.5643 47.9257C32.4712 48.1339 32.2665 48.2574 32.0521 48.2574Z" fill="white"/>
<path fill-rule="evenodd" clip-rule="evenodd" d="M49.5433 38.6929C49.2335 38.6929 48.9823 38.4418 48.9823 38.1319C48.9823 31.7917 44.9496 29.4022 37.9841 27.4175C37.6862 27.3325 37.5133 27.0221 37.5983 26.7241C37.6831 26.4262 37.9934 26.2534 38.2915 26.3382C41.2441 27.1796 44.2852 28.2102 46.5248 30.0384C48.9335 32.0046 50.1044 34.6519 50.1044 38.1319C50.1044 38.4417 49.8532 38.6929 49.5433 38.6929Z" fill="white"/>
</g>
<defs>
<clipPath id="clip0_11945_185">
<rect width="44.2105" height="44.2105" fill="white" transform="translate(9.94727 9.94727)"/>
</clipPath>
</defs>
</svg>
