<svg width="134" height="134" viewBox="0 0 134 134" fill="none" xmlns="http://www.w3.org/2000/svg">
<circle cx="67" cy="67" r="67" fill="#0E99FF"/>
<path d="M85.1938 44.1783C85.5227 40.9589 86.232 37.6484 87.356 34.3001C87.5754 33.5756 87.8587 32.8052 88.1606 32.02C89.1163 29.5577 87.8867 26.7796 85.4214 25.8216C83.7778 25.1897 81.9148 25.515 80.567 26.6753C79.9833 27.1874 79.5242 27.8449 79.2487 28.5679C77.6966 32.5614 76.6326 36.5475 76.0308 40.4512C76.5659 40.7078 77.1068 40.9628 77.6269 41.2229C80.1217 42.4573 82.4754 43.6112 85.1938 44.1783Z" fill="white"/>
<path d="M56.941 60.3659C56.6898 61.2038 56.6465 61.9542 56.7803 62.847L73.129 79.1944C74.0249 78.5056 74.8337 77.6559 75.4928 76.7285L57.5796 58.8289C57.3185 59.3479 57.0906 59.8663 56.941 60.3659Z" fill="white"/>
<path d="M43.5218 98.9426L36.7388 91.3412C36.0812 91.6253 35.4222 91.9366 34.7612 92.2847L42.6742 101.53C42.7413 101.297 42.781 101.06 42.8698 100.832C43.113 100.198 43.308 99.572 43.5218 98.9426Z" fill="white"/>
<path d="M39.9863 90.1928L44.59 95.352C45.097 93.3501 45.4434 91.3838 45.6348 89.4584C43.7922 89.4157 41.903 89.6681 39.9863 90.1928Z" fill="white"/>
<path d="M69.3751 93.4736C70.8397 93.4736 72.2762 93.2821 73.7657 92.8883C81.901 90.7366 87.4215 83.5009 89.2845 77.2855C91.0588 71.319 89.5118 66.9463 87.8744 62.3168C87.6496 61.6951 87.4397 61.073 87.2259 60.4519C82.9567 60.2642 79.436 59.3108 76.6006 58.235C77.2747 61.0944 78.125 63.4816 78.8442 65.4919C80.3088 69.5868 80.9749 71.6824 80.1143 74.5517C79.8654 75.3824 79.4847 76.2458 79.0155 77.0987C79.0089 77.1156 78.9982 77.1303 78.9909 77.1471C77.7705 79.3464 75.8684 81.4374 73.5558 82.7084C73.5438 82.7136 73.5339 82.7225 73.5218 82.7273C72.8165 83.1117 72.0868 83.4454 71.3128 83.6504C70.6498 83.8255 70.0195 83.9064 69.4 83.9064C67.1775 83.9064 65.0841 82.8636 62.0523 81.3531C61.8699 81.2634 61.6791 81.1713 61.4942 81.0806C61.8533 84.5622 61.8331 88.1025 61.437 91.6445C63.6723 92.6096 66.3086 93.4736 69.3751 93.4736Z" fill="white"/>
<path d="M95.9837 43.1624L89.5954 37.9041C88.9784 40.1656 88.5787 42.3784 88.3594 44.5411C90.8692 44.6019 93.4223 44.1181 95.9837 43.1624Z" fill="white"/>
<path d="M63.4341 78.4816C67.039 80.2762 68.5156 80.9094 70.0763 80.6491L58.8638 69.436C59.6192 71.6304 60.4072 74.2135 60.9771 77.2998C61.8299 77.6982 62.6565 78.0987 63.4341 78.4816Z" fill="white"/>
<path d="M101.11 40.6552L91.4659 31.9688C91.3789 32.3708 91.2884 32.7734 91.135 33.1686C90.9469 33.6573 90.7861 34.1383 90.6221 34.6207L99.2489 41.7216C99.8803 41.3906 100.499 41.0358 101.11 40.6552Z" fill="white"/>
<path d="M104.257 42.707C103.782 42.8354 103.344 43.0237 102.959 43.265C101.619 44.1109 100.198 44.8665 98.7382 45.5093C95.1958 47.0875 91.6068 47.8447 88.1033 47.7318C87.5719 47.7157 87.0616 47.6684 86.5634 47.6198C86.5523 47.6195 86.5412 47.6196 86.5298 47.619C86.5268 47.6188 86.5245 47.6169 86.5215 47.6167C86.5036 47.615 86.4839 47.6145 86.466 47.6127C82.4567 47.1684 79.305 45.6089 76.2576 44.1015C75.358 43.6517 74.4989 43.2299 73.6071 42.8229C73.5417 42.7934 73.4794 42.7599 73.4203 42.7225C70.997 41.6237 68.071 40.5288 64.6267 40.5288C63.1621 40.5288 61.7255 40.7202 60.2361 41.1132C52.1023 43.2657 46.5802 50.5014 44.7172 56.7169C42.9429 62.6826 44.49 67.0553 46.1273 71.6848C46.4791 72.6567 46.8199 73.6124 47.1437 74.5999C47.6977 76.3197 48.3763 78.6613 48.7405 81.6115C48.9989 83.6355 49.0767 85.8028 48.974 88.0479C48.9727 88.0719 48.9681 88.0965 48.9668 88.1204C48.9665 88.1236 48.968 88.1264 48.9678 88.1296C48.9675 88.1329 48.9654 88.1355 48.965 88.1388C48.7604 91.7109 48.0214 95.4156 46.805 99.1888C46.7912 99.2227 46.7862 99.2576 46.77 99.2906C46.4798 100.185 46.1885 101.079 45.8425 101.981C45.3771 103.176 45.4083 104.476 45.9266 105.645C46.4448 106.817 47.388 107.717 48.5818 108.18C49.7646 108.635 51.0658 108.602 52.2362 108.08C53.405 107.56 54.3 106.619 54.756 105.43C56.454 101.059 57.5964 96.6852 58.1536 92.4222C58.703 88.381 58.7279 84.3383 58.2314 80.3967C58.1552 79.7951 58.0773 79.2224 57.9855 78.6489C57.2883 74.4567 56.1069 71.1595 55.1575 68.5105C53.693 64.4125 53.0284 62.316 53.8875 59.4507C54.8242 56.3242 57.4391 52.7388 60.8889 51.0465C60.9171 51.0336 60.9411 51.0126 60.9699 51.0013C61.5243 50.7354 62.0952 50.5086 62.6889 50.3512C65.7224 49.552 68.0679 50.7146 71.9495 52.6492C72.9907 53.1597 74.0148 53.664 75.0997 54.1527C78.1159 55.5247 82.2793 57.1192 87.803 57.2959C88.038 57.3122 88.203 57.3114 88.3726 57.3107C94.511 57.3612 100.738 55.6329 106.761 52.1387C107.169 51.8983 107.586 51.6508 108.005 51.3878C109.034 50.752 109.793 49.7209 110.101 48.5544C110.438 47.2805 110.235 45.9186 109.544 44.8198C108.421 43.0097 106.295 42.1654 104.257 42.707Z" fill="white"/>
<path d="M27.432 91.3296C28.6802 91.6214 29.9611 91.409 31.049 90.7335C32.9102 89.5736 34.7717 88.64 36.6253 87.9304C36.6384 87.9258 36.6499 87.9188 36.6631 87.9145C39.7436 86.7401 42.8017 86.1932 45.8001 86.2717C45.8038 84.8017 45.7501 83.361 45.578 82.0076C45.3194 79.9095 44.883 78.1489 44.4616 76.7222C38.2427 76.8897 32.0348 78.8561 25.9908 82.6184C24.9075 83.2908 24.1526 84.346 23.8632 85.5904C23.5752 86.8324 23.7869 88.1094 24.4608 89.1857C25.1363 90.279 26.19 91.0378 27.432 91.3296Z" fill="white"/>
<path d="M59.4058 56.1466L77.0192 73.7466C77.0307 73.7102 77.0497 73.6719 77.0606 73.6357C77.3893 72.5414 77.3978 71.6527 77.0319 70.2171L61.2938 54.4783C60.6122 54.9436 59.9756 55.5151 59.4058 56.1466Z" fill="white"/>
<path d="M70.6169 55.5457C67.5052 53.9965 65.9696 53.3104 64.6201 53.2976L74.7615 63.4394C74.126 61.4956 73.4993 59.2677 73.0243 56.6939C72.199 56.3085 71.3752 55.9184 70.6169 55.5457Z" fill="white"/>
</svg>
