<svg width="36" height="36" viewBox="0 0 36 36" fill="none" xmlns="http://www.w3.org/2000/svg">
<path d="M15.75 11.25H18L20.25 9L22.5 13.5L24.75 7.875L27 11.25" stroke="#151515" stroke-width="2" stroke-miterlimit="10" stroke-linecap="round" stroke-linejoin="round"/>
<path d="M3.375 28.125L6.3 23.4C7.9875 20.8125 10.8 19.125 13.95 19.125H21.375C21.375 21.6 19.35 23.625 16.875 23.625H14.625" stroke="#151515" stroke-width="2" stroke-miterlimit="10" stroke-linecap="round" stroke-linejoin="round"/>
<path d="M16.875 23.625H25.875L27.225 21.825C28.4625 20.1375 30.4875 19.125 32.625 19.125L29.5875 24.525C28.0125 27.45 24.8625 29.25 21.6 29.25C16.3125 29.25 11.1375 30.825 6.75 33.75" stroke="#151515" stroke-width="2" stroke-miterlimit="10" stroke-linecap="round" stroke-linejoin="round"/>
<path d="M18.1125 19.125L13.1625 13.8375L11.8125 12.375C9.5625 10.0125 9.5625 6.29999 11.8125 3.93749C14.0625 1.57499 17.775 1.57499 20.025 3.93749L21.15 5.06249C21.2625 5.17499 21.4875 5.17499 21.6 5.06249L22.725 3.93749C24.975 1.57499 28.6875 1.57499 30.9375 3.93749C33.1875 6.29999 33.1875 10.0125 30.9375 12.375L29.5875 13.8375L24.75 18.7875L21.6 22.05" stroke="#151515" stroke-width="2" stroke-miterlimit="10" stroke-linecap="round" stroke-linejoin="round"/>
</svg>
